<svg width="24" height="25" viewBox="0 0 24 25" fill="none" xmlns="http://www.w3.org/2000/svg">
<g id="White / Instagram">
<g id="Vector">
<path fill-rule="evenodd" clip-rule="evenodd" d="M12 6.77808C8.59688 6.77808 5.83594 9.53901 5.83594 12.9421C5.83594 16.3453 8.59688 19.1062 12 19.1062C15.4031 19.1062 18.1641 16.3453 18.1641 12.9421C18.1641 9.53901 15.4031 6.77808 12 6.77808ZM12 16.9406C9.79219 16.9406 8.00156 15.15 8.00156 12.9421C8.00156 10.7343 9.79219 8.9437 12 8.9437C14.2078 8.9437 15.9984 10.7343 15.9984 12.9421C15.9984 15.15 14.2078 16.9406 12 16.9406Z" fill="#FFC000"/>
<path d="M18.4078 7.97334C19.2 7.97334 19.8469 7.33116 19.8469 6.53428C19.8469 5.74209 19.2 5.09521 18.4078 5.09521C17.6156 5.09521 16.9688 5.7374 16.9688 6.53428C16.9688 7.32647 17.6109 7.97334 18.4078 7.97334Z" fill="#FFC000"/>
<path fill-rule="evenodd" clip-rule="evenodd" d="M12 0.942139C8.74219 0.942139 8.33438 0.956201 7.05469 1.01245C5.77969 1.0687 4.90313 1.27495 4.14375 1.57026C3.35156 1.87964 2.68125 2.28745 2.01563 2.95776C1.34531 3.62339 0.9375 4.2937 0.628125 5.0812C0.332812 5.84526 0.126563 6.71714 0.0703125 7.99214C0.0140625 9.27651 0 9.68433 0 12.9421C0 16.2 0.0140625 16.6078 0.0703125 17.8875C0.126563 19.1625 0.332812 20.039 0.628125 20.7984C0.9375 21.5906 1.34531 22.2609 2.01563 22.9265C2.68125 23.5921 3.35156 24.0046 4.13906 24.3093C4.90313 24.6046 5.775 24.8109 7.05 24.8671C8.32969 24.9234 8.7375 24.9375 11.9953 24.9375C15.2531 24.9375 15.6609 24.9234 16.9406 24.8671C18.2156 24.8109 19.0922 24.6046 19.8516 24.3093C20.6391 24.0046 21.3094 23.5921 21.975 22.9265C22.6406 22.2609 23.0531 21.5906 23.3578 20.8031C23.6531 20.039 23.8594 19.1671 23.9156 17.8921C23.9719 16.6125 23.9859 16.2046 23.9859 12.9468C23.9859 9.68901 23.9719 9.2812 23.9156 8.00151C23.8594 6.72651 23.6531 5.84995 23.3578 5.09058C23.0625 4.2937 22.6547 3.62339 21.9844 2.95776C21.3188 2.29214 20.6484 1.87964 19.8609 1.57495C19.0969 1.27964 18.225 1.07339 16.95 1.01714C15.6656 0.956201 15.2578 0.942139 12 0.942139ZM12 3.10308C15.2063 3.10308 15.5859 3.11714 16.8469 3.17339C18.0188 3.22495 18.6516 3.42183 19.0734 3.58589C19.6313 3.80151 20.0344 4.06401 20.4516 4.4812C20.8734 4.90308 21.1313 5.30151 21.3469 5.85933C21.5109 6.2812 21.7078 6.9187 21.7594 8.08589C21.8156 9.35151 21.8297 9.7312 21.8297 12.9328C21.8297 16.139 21.8156 16.5187 21.7594 17.7796C21.7078 18.9515 21.5109 19.5843 21.3469 20.0062C21.1313 20.564 20.8687 20.9671 20.4516 21.3843C20.0297 21.8062 19.6313 22.064 19.0734 22.2796C18.6516 22.4437 18.0141 22.6406 16.8469 22.6921C15.5813 22.7484 15.2016 22.7625 12 22.7625C8.79375 22.7625 8.41406 22.7484 7.15313 22.6921C5.98125 22.6406 5.34844 22.4437 4.92656 22.2796C4.36875 22.064 3.96563 21.8015 3.54844 21.3843C3.12656 20.9625 2.86875 20.564 2.65313 20.0062C2.48906 19.5843 2.29219 18.9468 2.24063 17.7796C2.18438 16.514 2.17031 16.1343 2.17031 12.9328C2.17031 9.72651 2.18438 9.34683 2.24063 8.08589C2.29219 6.91401 2.48906 6.2812 2.65313 5.85933C2.86875 5.30151 3.13125 4.89839 3.54844 4.4812C3.97031 4.05933 4.36875 3.80151 4.92656 3.58589C5.34844 3.42183 5.98594 3.22495 7.15313 3.17339C8.41406 3.11714 8.79375 3.10308 12 3.10308Z" fill="#FFC000"/>
</g>
</g>
</svg>
