<svg width="24" height="25" viewBox="0 0 24 25" fill="none" xmlns="http://www.w3.org/2000/svg">
<g id="White / Twitter">
<path id="Vector" d="M7.55016 22.6921C16.6045 22.6921 21.5583 15.1888 21.5583 8.684C21.5583 8.47306 21.5536 8.25744 21.5442 8.0465C22.5079 7.3496 23.3395 6.48639 24 5.49744C23.1025 5.89674 22.1496 6.15752 21.1739 6.27087C22.2013 5.65505 22.9705 4.68761 23.3391 3.54791C22.3726 4.1207 21.3156 4.52475 20.2134 4.74275C19.4708 3.9537 18.489 3.43125 17.4197 3.25619C16.3504 3.08112 15.2532 3.26319 14.2977 3.77424C13.3423 4.28528 12.5818 5.09684 12.1338 6.08345C11.6859 7.07006 11.5754 8.17675 11.8195 9.23244C9.86249 9.13423 7.94794 8.62584 6.19998 7.74024C4.45203 6.85463 2.90969 5.61158 1.67297 4.09166C1.0444 5.17538 0.852057 6.45778 1.13503 7.67823C1.418 8.89868 2.15506 9.96559 3.19641 10.6621C2.41463 10.6373 1.64998 10.4268 0.965625 10.0481V10.109C0.964925 11.2463 1.3581 12.3487 2.07831 13.2289C2.79852 14.1091 3.80132 14.7127 4.91625 14.9371C4.19206 15.1353 3.43198 15.1641 2.69484 15.0215C3.00945 15.9996 3.62157 16.855 4.44577 17.4685C5.26997 18.0819 6.26512 18.4227 7.29234 18.4434C5.54842 19.8132 3.39417 20.5563 1.17656 20.5527C0.783287 20.5521 0.390399 20.528 0 20.4806C2.25286 21.9259 4.87353 22.6935 7.55016 22.6921Z" fill="#FFC000"/>
</g>
</svg>
