<svg width="24" height="25" viewBox="0 0 24 25" fill="none" xmlns="http://www.w3.org/2000/svg">
<g id="White / Youtube">
<path id="Vector" d="M23.7609 8.14219C23.7609 8.14219 23.5266 6.4875 22.8047 5.76094C21.8906 4.80469 20.8688 4.8 20.4 4.74375C17.0438 4.5 12.0047 4.5 12.0047 4.5H11.9953C11.9953 4.5 6.95625 4.5 3.6 4.74375C3.13125 4.8 2.10938 4.80469 1.19531 5.76094C0.473438 6.4875 0.24375 8.14219 0.24375 8.14219C0.24375 8.14219 0 10.0875 0 12.0281V13.8469C0 15.7875 0.239062 17.7328 0.239062 17.7328C0.239062 17.7328 0.473437 19.3875 1.19062 20.1141C2.10469 21.0703 3.30469 21.0375 3.83906 21.1406C5.76094 21.3234 12 21.3797 12 21.3797C12 21.3797 17.0438 21.3703 20.4 21.1313C20.8688 21.075 21.8906 21.0703 22.8047 20.1141C23.5266 19.3875 23.7609 17.7328 23.7609 17.7328C23.7609 17.7328 24 15.7922 24 13.8469V12.0281C24 10.0875 23.7609 8.14219 23.7609 8.14219ZM9.52031 16.0547V9.30937L16.0031 12.6937L9.52031 16.0547Z" fill="#FFC000"/>
</g>
</svg>
