<svg width="490" height="490" viewBox="0 0 490 490" fill="none" xmlns="http://www.w3.org/2000/svg">
<circle cx="245" cy="245" r="245" fill="#FFC000"/>
<circle cx="245" cy="145.5" r="65.5" fill="white"/>
<g clip-path="url(#clip0_1551_87)">
<path d="M244.83 137.791C234.42 137.791 224.011 137.791 213.601 137.791C212.373 137.791 212.215 137.662 211.825 136.495C210.721 133.19 209.595 129.893 208.508 126.582C208.141 125.465 208.537 124.962 209.715 124.962C216.369 124.958 223.023 124.959 229.677 124.959C246.337 124.959 262.997 124.959 279.658 124.959C281.207 124.959 281.571 125.431 281.085 126.894C279.979 130.225 278.843 133.546 277.735 136.876C277.48 137.644 276.933 137.798 276.208 137.798C268.621 137.787 261.034 137.791 253.449 137.791C250.576 137.791 247.701 137.791 244.828 137.791H244.83ZM281.486 123.066C281.801 123.059 282.112 122.849 282.425 122.733C282.243 122.425 282.136 122.015 281.87 121.827C278.219 119.241 274.55 116.68 270.878 114.124C267.391 111.697 263.89 109.291 260.407 106.86C255.459 103.406 250.518 99.9439 245.583 96.4705C245.078 96.1148 244.642 96.0767 244.137 96.4311C242.574 97.529 240.995 98.6048 239.432 99.7039C236.842 101.526 234.267 103.371 231.67 105.182C228.251 107.566 224.81 109.921 221.389 112.302C217.655 114.9 213.931 117.513 210.204 120.121C209.319 120.74 208.425 121.349 207.564 122.002C207.38 122.141 207.192 122.498 207.251 122.67C207.315 122.857 207.653 122.983 207.897 123.066C208.077 123.129 208.295 123.084 208.498 123.084C211.371 123.084 214.245 123.06 217.118 123.1C217.898 123.111 218.521 122.878 219.138 122.44C222.497 120.055 225.868 117.683 229.244 115.32C234.227 111.83 239.221 108.355 244.201 104.864C244.638 104.557 245.028 104.539 245.444 104.848C245.626 104.982 245.79 105.141 245.977 105.267C250.176 108.124 254.381 110.971 258.576 113.835C262.874 116.769 267.156 119.727 271.466 122.644C271.854 122.906 272.391 123.047 272.865 123.065C274.275 123.119 275.687 123.085 277.098 123.084C278.56 123.084 280.023 123.103 281.484 123.068L281.486 123.066ZM242.462 142.074C242.462 140.416 241.763 139.71 240.073 139.706C236.117 139.697 232.162 139.697 228.206 139.706C226.566 139.71 225.827 140.425 225.825 142.042C225.815 148.95 225.82 155.857 225.821 162.764C225.821 162.89 225.826 163.016 225.84 163.14C225.969 164.336 226.662 165.011 227.878 165.016C232.06 165.033 236.243 165.033 240.424 165.016C241.755 165.011 242.459 164.267 242.46 162.947C242.464 159.43 242.46 155.914 242.46 152.397C242.46 148.956 242.46 145.516 242.46 142.074H242.462ZM245.103 162.806C245.105 164.315 245.811 165.019 247.32 165.022C251.328 165.028 255.335 165.028 259.343 165.022C260.829 165.019 261.591 164.267 261.592 162.805C261.596 155.869 261.596 148.934 261.592 141.999C261.592 140.548 260.779 139.716 259.297 139.71C255.315 139.694 251.333 139.695 247.35 139.71C245.828 139.716 245.101 140.478 245.1 142C245.096 145.443 245.1 148.886 245.1 152.328C245.1 155.821 245.095 159.314 245.103 162.806ZM266.143 123.314C266.674 123.314 267.203 123.228 267.189 122.637C267.18 122.298 266.832 121.876 266.52 121.653C264.926 120.515 263.294 119.428 261.674 118.325C256.335 114.692 250.989 111.069 245.668 107.411C245.037 106.978 244.593 107.008 243.986 107.435C240.275 110.052 236.54 112.634 232.813 115.228C229.698 117.397 226.582 119.563 223.469 121.736C222.874 122.152 222.686 122.714 223.083 123.032C223.322 123.225 223.721 123.295 224.048 123.295C231.026 123.31 238.005 123.306 244.983 123.306C252.036 123.306 259.09 123.303 266.143 123.313V123.314ZM264.451 163.745C264.449 164.321 264.549 164.835 265.183 164.98C265.873 165.139 266.256 164.726 266.499 164.132C266.841 163.296 267.196 162.467 267.545 161.633C268.915 158.347 270.274 155.057 271.657 151.776C273.098 148.358 274.565 144.951 276.011 141.534C276.519 140.331 276.107 139.713 274.785 139.707C271.787 139.695 268.789 139.697 265.793 139.707C264.753 139.711 264.457 140.027 264.457 141.07C264.456 144.812 264.457 148.553 264.457 152.295C264.457 156.112 264.462 159.929 264.452 163.747L264.451 163.745ZM223.102 141.005C223.102 140.099 222.827 139.729 222 139.72C219.481 139.69 216.961 139.686 214.441 139.715C213.541 139.724 213.187 140.255 213.394 141.117C213.441 141.311 213.504 141.503 213.569 141.693C214.939 145.701 216.318 149.708 217.682 153.719C218.87 157.21 220.037 160.706 221.234 164.192C221.329 164.468 221.552 164.788 221.802 164.909C222.537 165.263 223.101 164.782 223.102 163.839C223.107 160.021 223.105 156.203 223.105 152.385C223.105 148.591 223.106 144.799 223.105 141.006L223.102 141.005Z" fill="#F7B742"/>
<path d="M275.189 194.324C274.225 194.324 273.319 194.34 272.414 194.307C272.271 194.302 272.076 194.097 272.008 193.941C271.459 192.672 270.925 191.397 270.412 190.113C270.284 189.792 270.142 189.644 269.765 189.647C267.048 189.664 264.331 189.661 261.613 189.649C261.282 189.648 261.112 189.74 260.986 190.06C260.48 191.346 259.933 192.617 259.423 193.9C259.302 194.204 259.157 194.345 258.807 194.332C257.992 194.304 257.176 194.324 256.283 194.324C256.35 194.128 256.389 193.975 256.451 193.831C259.073 187.807 261.703 181.784 264.313 175.754C264.478 175.375 264.678 175.241 265.076 175.269C265.715 175.316 266.495 175.107 266.958 175.403C267.399 175.686 267.516 176.475 267.764 177.049C270.174 182.63 272.582 188.211 274.988 193.793C275.053 193.945 275.105 194.102 275.188 194.321L275.189 194.324ZM269.225 187.28C268.049 184.333 266.894 181.437 265.686 178.409C264.463 181.458 263.305 184.345 262.127 187.28H269.225Z" fill="#231F20"/>
<path d="M231.654 177.625C230.847 178.246 230.162 178.771 229.454 179.314C228.232 177.89 226.705 177.138 224.863 177.095C220.925 177.002 217.815 179.809 217.471 183.733C217.257 186.171 217.74 188.404 219.424 190.279C221.956 193.099 227.263 193.267 229.591 190.071C229.625 190.026 229.661 189.98 229.728 189.892C230.447 190.38 231.143 190.854 231.883 191.356C230.914 192.654 229.73 193.646 228.249 194.133C224.322 195.428 220.648 194.952 217.509 192.124C215.394 190.219 214.498 187.711 214.479 184.896C214.455 181.276 215.736 178.246 218.913 176.333C222.449 174.205 226.141 174.104 229.794 176.122C230.456 176.488 230.991 177.08 231.656 177.625H231.654Z" fill="#231F20"/>
<path d="M239.578 175.283C240.546 175.283 241.453 175.258 242.356 175.307C242.501 175.315 242.684 175.626 242.759 175.831C244.146 179.558 245.518 183.289 246.894 187.02C247.357 188.277 247.824 189.533 248.34 190.929C248.462 190.617 248.537 190.432 248.605 190.245C250.383 185.432 252.167 180.621 253.927 175.801C254.077 175.389 254.265 175.248 254.696 175.269C255.45 175.305 256.207 175.279 257.05 175.279C256.461 176.775 255.903 178.193 255.344 179.61C253.481 184.331 251.612 189.048 249.767 193.776C249.603 194.198 249.413 194.377 248.95 194.336C248.313 194.28 247.525 194.506 247.071 194.206C246.64 193.921 246.548 193.118 246.32 192.537C244.15 187.002 241.981 181.467 239.813 175.93C239.741 175.743 239.675 175.552 239.579 175.285L239.578 175.283Z" fill="#231F20"/>
<path d="M237.188 194.308H234.605V175.316H237.188V194.308Z" fill="#231F20"/>
</g>
<path d="M70.0212 242.612C72.0852 242.612 73.9332 243.02 75.5652 243.836C77.1972 244.64 78.5172 245.762 79.5252 247.202C80.5332 248.63 81.1332 250.28 81.3252 252.152H74.0172C73.8852 251.348 73.6392 250.652 73.2792 250.064C72.9192 249.476 72.4452 249.026 71.8572 248.714C71.2812 248.39 70.5912 248.228 69.7872 248.228C68.9112 248.228 68.1312 248.456 67.4472 248.912C66.7632 249.368 66.2232 250.148 65.8272 251.252C65.4432 252.344 65.2512 253.844 65.2512 255.752C65.2512 258.644 65.6772 260.702 66.5292 261.926C67.3812 263.138 68.4672 263.744 69.7872 263.744C70.5912 263.744 71.2812 263.54 71.8572 263.132C72.4452 262.724 72.9192 262.184 73.2792 261.512C73.6392 260.828 73.8852 260.084 74.0172 259.28H81.3252C81.1452 260.624 80.8392 261.902 80.4072 263.114C79.9872 264.326 79.3572 265.406 78.5172 266.354C77.6892 267.29 76.5852 268.028 75.2052 268.568C73.8252 269.096 72.0972 269.36 70.0212 269.36C67.5132 269.36 65.3232 268.766 63.4512 267.578C61.5912 266.39 60.1452 264.764 59.1132 262.7C58.0812 260.636 57.5652 258.284 57.5652 255.644C57.5652 253.004 58.0752 250.712 59.0952 248.768C60.1152 246.812 61.5552 245.3 63.4152 244.232C65.2872 243.152 67.4892 242.612 70.0212 242.612ZM85.2894 242.972H92.2914V269H85.2894V242.972ZM120.519 242.972L111.735 269H104.031L95.247 242.972H101.853L107.883 260.792L113.895 242.972H120.519ZM123.504 242.972H130.506V269H123.504V242.972ZM146.908 242.612C148.972 242.612 150.82 243.02 152.452 243.836C154.084 244.64 155.404 245.762 156.412 247.202C157.42 248.63 158.02 250.28 158.212 252.152H150.904C150.772 251.348 150.526 250.652 150.166 250.064C149.806 249.476 149.332 249.026 148.744 248.714C148.168 248.39 147.478 248.228 146.674 248.228C145.798 248.228 145.018 248.456 144.334 248.912C143.65 249.368 143.11 250.148 142.714 251.252C142.33 252.344 142.138 253.844 142.138 255.752C142.138 258.644 142.564 260.702 143.416 261.926C144.268 263.138 145.354 263.744 146.674 263.744C147.478 263.744 148.168 263.54 148.744 263.132C149.332 262.724 149.806 262.184 150.166 261.512C150.526 260.828 150.772 260.084 150.904 259.28H158.212C158.032 260.624 157.726 261.902 157.294 263.114C156.874 264.326 156.244 265.406 155.404 266.354C154.576 267.29 153.472 268.028 152.092 268.568C150.712 269.096 148.984 269.36 146.908 269.36C144.4 269.36 142.21 268.766 140.338 267.578C138.478 266.39 137.032 264.764 136 262.7C134.968 260.636 134.452 258.284 134.452 255.644C134.452 253.004 134.962 250.712 135.982 248.768C137.002 246.812 138.442 245.3 140.302 244.232C142.174 243.152 144.376 242.612 146.908 242.612ZM169.207 269V242.972H188.431L188.395 248.768H176.263V253.088H186.415V258.74H176.209V263.168H188.467V269H169.207ZM209.724 242.972H216.726V269H210.408L199.518 253.484V269H192.516V242.972H199.572L209.724 257.48V242.972ZM233.002 269.36C230.53 269.36 228.37 268.802 226.522 267.686C224.674 266.558 223.24 264.998 222.22 263.006C221.2 261.002 220.69 258.692 220.69 256.076C220.69 253.376 221.23 251.018 222.31 249.002C223.402 246.974 224.902 245.402 226.81 244.286C228.73 243.17 230.938 242.612 233.434 242.612C235.186 242.612 236.758 242.876 238.15 243.404C239.542 243.932 240.73 244.652 241.714 245.564C242.71 246.464 243.472 247.484 244 248.624C244.528 249.764 244.804 250.94 244.828 252.152H237.502C237.346 251.444 237.088 250.808 236.728 250.244C236.38 249.68 235.918 249.236 235.342 248.912C234.766 248.576 234.07 248.408 233.254 248.408C232.402 248.408 231.598 248.642 230.842 249.11C230.098 249.566 229.492 250.34 229.024 251.432C228.568 252.512 228.34 253.988 228.34 255.86C228.34 257.456 228.502 258.746 228.826 259.73C229.162 260.702 229.588 261.446 230.104 261.962C230.632 262.478 231.202 262.826 231.814 263.006C232.426 263.186 233.008 263.276 233.56 263.276C234.052 263.276 234.508 263.204 234.928 263.06C235.348 262.916 235.72 262.73 236.044 262.502C236.368 262.262 236.638 261.998 236.854 261.71C237.082 261.422 237.244 261.128 237.34 260.828L237.646 259.892H233.11V255.176L245.026 255.248V269H240.436V266.12C240.004 266.564 239.482 267.038 238.87 267.542C238.27 268.046 237.502 268.478 236.566 268.838C235.63 269.186 234.442 269.36 233.002 269.36ZM248.212 269L257.428 242.972H264.592L273.808 269H266.896L265.168 263.96H256.96L255.196 269H248.212ZM258.436 257.984H263.584L261.028 249.668L258.436 257.984ZM286.932 269.36C284.46 269.36 282.3 268.802 280.452 267.686C278.604 266.558 277.17 264.998 276.15 263.006C275.13 261.002 274.62 258.692 274.62 256.076C274.62 253.376 275.16 251.018 276.24 249.002C277.332 246.974 278.832 245.402 280.74 244.286C282.66 243.17 284.868 242.612 287.364 242.612C289.116 242.612 290.688 242.876 292.08 243.404C293.472 243.932 294.66 244.652 295.644 245.564C296.64 246.464 297.402 247.484 297.93 248.624C298.458 249.764 298.734 250.94 298.758 252.152H291.432C291.276 251.444 291.018 250.808 290.658 250.244C290.31 249.68 289.848 249.236 289.272 248.912C288.696 248.576 288 248.408 287.184 248.408C286.332 248.408 285.528 248.642 284.772 249.11C284.028 249.566 283.422 250.34 282.954 251.432C282.498 252.512 282.27 253.988 282.27 255.86C282.27 257.456 282.432 258.746 282.756 259.73C283.092 260.702 283.518 261.446 284.034 261.962C284.562 262.478 285.132 262.826 285.744 263.006C286.356 263.186 286.938 263.276 287.49 263.276C287.982 263.276 288.438 263.204 288.858 263.06C289.278 262.916 289.65 262.73 289.974 262.502C290.298 262.262 290.568 261.998 290.784 261.71C291.012 261.422 291.174 261.128 291.27 260.828L291.576 259.892H287.04V255.176L298.956 255.248V269H294.366V266.12C293.934 266.564 293.412 267.038 292.8 267.542C292.2 268.046 291.432 268.478 290.496 268.838C289.56 269.186 288.372 269.36 286.932 269.36ZM303.68 269V242.972H322.904L322.868 248.768H310.736V253.088H320.888V258.74H310.682V263.168H322.94V269H303.68ZM326.989 269V242.972H337.393L341.605 258.848L345.853 242.972H356.221V269H349.201V250.136L344.125 269H339.085L333.991 250.136V269H326.989ZM361.09 269V242.972H380.314L380.278 248.768H368.146V253.088H378.298V258.74H368.092V263.168H380.35V269H361.09ZM401.607 242.972H408.609V269H402.291L391.401 253.484V269H384.399V242.972H391.455L401.607 257.48V242.972ZM411.583 249.128V242.972H433.435V249.128H425.983V269H418.963V249.128H411.583ZM141.75 311V284.972H152.046C153.966 284.972 155.694 285.314 157.23 285.998C158.778 286.682 160.002 287.684 160.902 289.004C161.802 290.312 162.252 291.908 162.252 293.792C162.252 295.508 161.874 296.984 161.118 298.22C160.362 299.444 159.288 300.386 157.896 301.046C156.504 301.706 154.854 302.036 152.946 302.036H148.752V311H141.75ZM148.68 296.816H152.73C153.618 296.816 154.356 296.462 154.944 295.754C155.532 295.046 155.826 294.272 155.826 293.432C155.826 292.532 155.502 291.764 154.854 291.128C154.218 290.48 153.51 290.156 152.73 290.156H148.68V296.816ZM165.762 284.972H172.764V305.24H183.168V311H165.762V284.972ZM185.212 311L194.428 284.972H201.592L210.808 311H203.896L202.168 305.96H193.96L192.196 311H185.212ZM195.436 299.984H200.584L198.028 291.668L195.436 299.984ZM210.454 291.128V284.972H232.306V291.128H224.854V311H217.834V291.128H210.454ZM235.266 284.972H254.346L254.31 290.696H242.268V295.376H252.33V300.956H242.268V311H235.266V284.972ZM269.748 311.36C267.168 311.36 264.93 310.814 263.034 309.722C261.15 308.618 259.692 307.07 258.66 305.078C257.628 303.086 257.112 300.74 257.112 298.04C257.112 295.328 257.634 292.97 258.678 290.966C259.734 288.95 261.21 287.39 263.106 286.286C265.002 285.17 267.216 284.612 269.748 284.612C272.268 284.612 274.47 285.17 276.354 286.286C278.238 287.39 279.702 288.95 280.746 290.966C281.79 292.97 282.312 295.328 282.312 298.04C282.312 300.728 281.796 303.074 280.764 305.078C279.744 307.07 278.292 308.618 276.408 309.722C274.524 310.814 272.304 311.36 269.748 311.36ZM269.748 305.744C270.708 305.744 271.56 305.504 272.304 305.024C273.06 304.532 273.648 303.734 274.068 302.63C274.5 301.514 274.716 300.02 274.716 298.148C274.716 296.216 274.5 294.674 274.068 293.522C273.648 292.358 273.06 291.518 272.304 291.002C271.56 290.486 270.708 290.228 269.748 290.228C268.788 290.228 267.93 290.486 267.174 291.002C266.43 291.518 265.842 292.358 265.41 293.522C264.978 294.674 264.762 296.216 264.762 298.148C264.762 300.02 264.978 301.514 265.41 302.63C265.842 303.734 266.43 304.532 267.174 305.024C267.93 305.504 268.788 305.744 269.748 305.744ZM307.914 311H300.732L296.952 302.036H293.28V311H286.278V284.972H298.086C300.342 284.972 302.154 285.344 303.522 286.088C304.902 286.832 305.904 287.84 306.528 289.112C307.152 290.372 307.464 291.788 307.464 293.36C307.464 294.692 307.284 295.832 306.924 296.78C306.576 297.716 306.09 298.52 305.466 299.192C304.854 299.852 304.146 300.428 303.342 300.92L307.914 311ZM297.294 296.816C298.194 296.816 298.938 296.462 299.526 295.754C300.126 295.046 300.426 294.272 300.426 293.432C300.426 292.532 300.102 291.764 299.454 291.128C298.806 290.48 298.086 290.156 297.294 290.156H293.28V296.816H297.294ZM311.977 311V284.972H322.381L326.593 300.848L330.841 284.972H341.209V311H334.189V292.136L329.113 311H324.073L318.979 292.136V311H311.977Z" fill="#010101"/>
<path d="M101.271 323.756H116.111L116.083 328.208H106.717V331.848H114.543V336.188H106.717V344H101.271V323.756ZM128.09 344.28C126.084 344.28 124.343 343.855 122.868 343.006C121.403 342.147 120.269 340.943 119.466 339.394C118.664 337.845 118.262 336.02 118.262 333.92C118.262 331.811 118.668 329.977 119.48 328.418C120.302 326.85 121.45 325.637 122.924 324.778C124.399 323.91 126.121 323.476 128.09 323.476C130.05 323.476 131.763 323.91 133.228 324.778C134.694 325.637 135.832 326.85 136.644 328.418C137.456 329.977 137.862 331.811 137.862 333.92C137.862 336.011 137.461 337.835 136.658 339.394C135.865 340.943 134.736 342.147 133.27 343.006C131.805 343.855 130.078 344.28 128.09 344.28ZM128.09 339.912C128.837 339.912 129.5 339.725 130.078 339.352C130.666 338.969 131.124 338.349 131.45 337.49C131.786 336.622 131.954 335.46 131.954 334.004C131.954 332.501 131.786 331.302 131.45 330.406C131.124 329.501 130.666 328.847 130.078 328.446C129.5 328.045 128.837 327.844 128.09 327.844C127.344 327.844 126.676 328.045 126.088 328.446C125.51 328.847 125.052 329.501 124.716 330.406C124.38 331.302 124.212 332.501 124.212 334.004C124.212 335.46 124.38 336.622 124.716 337.49C125.052 338.349 125.51 338.969 126.088 339.352C126.676 339.725 127.344 339.912 128.09 339.912ZM157.775 344H152.189L149.249 337.028H146.393V344H140.947V323.756H150.131C151.885 323.756 153.295 324.045 154.359 324.624C155.432 325.203 156.211 325.987 156.697 326.976C157.182 327.956 157.425 329.057 157.425 330.28C157.425 331.316 157.285 332.203 157.005 332.94C156.734 333.668 156.356 334.293 155.871 334.816C155.395 335.329 154.844 335.777 154.219 336.16L157.775 344ZM149.515 332.968C150.215 332.968 150.793 332.693 151.251 332.142C151.717 331.591 151.951 330.989 151.951 330.336C151.951 329.636 151.699 329.039 151.195 328.544C150.691 328.04 150.131 327.788 149.515 327.788H146.393V332.968H149.515ZM166.404 344V323.756H174.496L177.772 336.104L181.076 323.756H189.14V344H183.68V329.328L179.732 344H175.812L171.85 329.328V344H166.404ZM192.927 344V323.756H207.879L207.851 328.264H198.415V331.624H206.311V336.02H198.373V339.464H207.907V344H192.927ZM209.887 344L217.055 323.756H222.627L229.795 344H224.419L223.075 340.08H216.691L215.319 344H209.887ZM217.839 335.432H221.843L219.855 328.964L217.839 335.432ZM245.495 323.756H250.941V344H246.027L237.557 331.932V344H232.111V323.756H237.599L245.495 335.04V323.756ZM254.724 323.756H260.17V344H254.724V323.756ZM277.323 323.756H282.769V344H277.855L269.385 331.932V344H263.939V323.756H269.427L277.323 335.04V323.756ZM295.428 344.28C293.505 344.28 291.825 343.846 290.388 342.978C288.951 342.101 287.835 340.887 287.042 339.338C286.249 337.779 285.852 335.983 285.852 333.948C285.852 331.848 286.272 330.014 287.112 328.446C287.961 326.869 289.128 325.646 290.612 324.778C292.105 323.91 293.823 323.476 295.764 323.476C297.127 323.476 298.349 323.681 299.432 324.092C300.515 324.503 301.439 325.063 302.204 325.772C302.979 326.472 303.571 327.265 303.982 328.152C304.393 329.039 304.607 329.953 304.626 330.896H298.928C298.807 330.345 298.606 329.851 298.326 329.412C298.055 328.973 297.696 328.628 297.248 328.376C296.8 328.115 296.259 327.984 295.624 327.984C294.961 327.984 294.336 328.166 293.748 328.53C293.169 328.885 292.698 329.487 292.334 330.336C291.979 331.176 291.802 332.324 291.802 333.78C291.802 335.021 291.928 336.025 292.18 336.79C292.441 337.546 292.773 338.125 293.174 338.526C293.585 338.927 294.028 339.198 294.504 339.338C294.98 339.478 295.433 339.548 295.862 339.548C296.245 339.548 296.599 339.492 296.926 339.38C297.253 339.268 297.542 339.123 297.794 338.946C298.046 338.759 298.256 338.554 298.424 338.33C298.601 338.106 298.727 337.877 298.802 337.644L299.04 336.916H295.512V333.248L304.78 333.304V344H301.21V341.76C300.874 342.105 300.468 342.474 299.992 342.866C299.525 343.258 298.928 343.594 298.2 343.874C297.472 344.145 296.548 344.28 295.428 344.28ZM308.454 323.756H323.294L323.266 328.208H313.9V331.848H321.726V336.188H313.9V344H308.454V323.756ZM343.618 335.628C343.618 337.345 343.343 338.853 342.792 340.15C342.241 341.447 341.327 342.46 340.048 343.188C338.779 343.916 337.057 344.28 334.882 344.28C332.707 344.28 330.981 343.916 329.702 343.188C328.433 342.46 327.523 341.447 326.972 340.15C326.421 338.853 326.146 337.345 326.146 335.628V323.756H331.662V335.852C331.662 337.252 331.984 338.246 332.628 338.834C333.281 339.422 334.033 339.716 334.882 339.716C335.442 339.716 335.965 339.59 336.45 339.338C336.945 339.077 337.341 338.666 337.64 338.106C337.948 337.537 338.102 336.785 338.102 335.852V323.756H343.618V335.628ZM347.009 323.756H352.455V339.52H360.547V344H347.009V323.756ZM377.863 323.448C379.151 323.448 380.304 323.639 381.321 324.022C382.348 324.405 383.155 324.932 383.743 325.604C384.341 326.276 384.639 327.051 384.639 327.928C384.639 328.46 384.527 328.969 384.303 329.454C384.079 329.93 383.771 330.387 383.379 330.826C382.997 331.255 382.553 331.671 382.049 332.072C381.545 332.473 381.009 332.865 380.439 333.248L382.455 335.628C382.539 335.32 382.642 334.956 382.763 334.536C382.885 334.116 383.006 333.682 383.127 333.234C383.258 332.786 383.37 332.361 383.463 331.96H389.119C388.793 332.669 388.373 333.411 387.859 334.186C387.355 334.951 386.842 335.721 386.319 336.496C385.797 337.261 385.349 337.999 384.975 338.708L389.511 344H383.295L381.783 342.264C380.635 343.001 379.469 343.501 378.283 343.762C377.107 344.014 376.043 344.14 375.091 344.14C373.458 344.14 372.133 343.916 371.115 343.468C370.098 343.02 369.351 342.404 368.875 341.62C368.409 340.836 368.175 339.94 368.175 338.932C368.175 337.971 368.376 337.135 368.777 336.426C369.179 335.707 369.776 335.049 370.569 334.452C371.372 333.845 372.366 333.229 373.551 332.604C373.113 332.1 372.716 331.647 372.361 331.246C372.007 330.835 371.722 330.415 371.507 329.986C371.302 329.547 371.199 329.029 371.199 328.432C371.199 327.48 371.479 326.631 372.039 325.884C372.599 325.128 373.379 324.535 374.377 324.106C375.385 323.667 376.547 323.448 377.863 323.448ZM378.143 326.584C377.667 326.612 377.28 326.761 376.981 327.032C376.692 327.293 376.547 327.629 376.547 328.04C376.547 328.208 376.58 328.39 376.645 328.586C376.72 328.773 376.832 328.983 376.981 329.216C377.14 329.44 377.35 329.692 377.611 329.972L378.255 330.644C378.666 330.355 378.997 330.079 379.249 329.818C379.501 329.547 379.683 329.281 379.795 329.02C379.907 328.759 379.963 328.488 379.963 328.208C379.963 327.844 379.879 327.541 379.711 327.298C379.553 327.046 379.333 326.859 379.053 326.738C378.783 326.617 378.479 326.565 378.143 326.584ZM376.155 335.628C375.623 335.936 375.143 336.337 374.713 336.832C374.293 337.327 374.158 337.896 374.307 338.54C374.401 338.904 374.573 339.203 374.825 339.436C375.077 339.66 375.353 339.823 375.651 339.926C375.959 340.029 376.239 340.08 376.491 340.08C376.818 340.08 377.252 340.01 377.793 339.87C378.344 339.721 378.815 339.473 379.207 339.128L376.155 335.628ZM88.1322 377V356.756H96.2242L99.5002 369.104L102.804 356.756H110.868V377H105.408V362.328L101.46 377H97.5402L93.5782 362.328V377H88.1322ZM114.656 377V356.756H129.608L129.58 361.264H120.144V364.624H128.04V369.02H120.102V372.464H129.636V377H114.656ZM131.615 377L138.783 356.756H144.355L151.523 377H146.147L144.803 373.08H138.419L137.047 377H131.615ZM139.567 368.432H143.571L141.583 361.964L139.567 368.432ZM161.703 377.28C160.658 377.28 159.622 377.149 158.595 376.888C157.578 376.627 156.64 376.23 155.781 375.698C154.932 375.166 154.232 374.499 153.681 373.696C153.13 372.884 152.813 371.932 152.729 370.84H158.273C158.376 371.316 158.576 371.722 158.875 372.058C159.174 372.394 159.561 372.655 160.037 372.842C160.513 373.019 161.059 373.108 161.675 373.108C162.235 373.108 162.762 373.052 163.257 372.94C163.761 372.828 164.167 372.641 164.475 372.38C164.792 372.109 164.951 371.736 164.951 371.26C164.951 370.849 164.788 370.532 164.461 370.308C164.144 370.084 163.728 369.911 163.215 369.79C162.711 369.669 162.179 369.561 161.619 369.468L158.525 368.936C156.976 368.684 155.725 368.059 154.773 367.06C153.83 366.052 153.34 364.689 153.303 362.972C153.284 361.609 153.648 360.447 154.395 359.486C155.151 358.515 156.159 357.778 157.419 357.274C158.688 356.761 160.088 356.504 161.619 356.504C163.467 356.504 165.03 356.775 166.309 357.316C167.588 357.857 168.558 358.609 169.221 359.57C169.893 360.531 170.243 361.637 170.271 362.888H164.867C164.811 362.365 164.652 361.945 164.391 361.628C164.13 361.301 163.775 361.068 163.327 360.928C162.888 360.779 162.356 360.704 161.731 360.704C161.208 360.704 160.77 360.755 160.415 360.858C160.07 360.951 159.794 361.077 159.589 361.236C159.384 361.385 159.234 361.553 159.141 361.74C159.057 361.927 159.015 362.113 159.015 362.3C159.015 362.757 159.16 363.126 159.449 363.406C159.738 363.686 160.317 363.905 161.185 364.064L164.293 364.596C165.74 364.848 166.874 365.24 167.695 365.772C168.516 366.295 169.118 366.887 169.501 367.55C169.893 368.213 170.14 368.871 170.243 369.524C170.346 370.177 170.397 370.756 170.397 371.26C170.397 372.408 170.014 373.439 169.249 374.354C168.493 375.259 167.462 375.973 166.155 376.496C164.848 377.019 163.364 377.28 161.703 377.28ZM190.835 368.628C190.835 370.345 190.559 371.853 190.009 373.15C189.458 374.447 188.543 375.46 187.265 376.188C185.995 376.916 184.273 377.28 182.099 377.28C179.924 377.28 178.197 376.916 176.919 376.188C175.649 375.46 174.739 374.447 174.189 373.15C173.638 371.853 173.363 370.345 173.363 368.628V356.756H178.879V368.852C178.879 370.252 179.201 371.246 179.845 371.834C180.498 372.422 181.249 372.716 182.099 372.716C182.659 372.716 183.181 372.59 183.667 372.338C184.161 372.077 184.558 371.666 184.857 371.106C185.165 370.537 185.319 369.785 185.319 368.852V356.756H190.835V368.628ZM211.054 377H205.468L202.528 370.028H199.672V377H194.226V356.756H203.41C205.165 356.756 206.574 357.045 207.638 357.624C208.711 358.203 209.491 358.987 209.976 359.976C210.461 360.956 210.704 362.057 210.704 363.28C210.704 364.316 210.564 365.203 210.284 365.94C210.013 366.668 209.635 367.293 209.15 367.816C208.674 368.329 208.123 368.777 207.498 369.16L211.054 377ZM202.794 365.968C203.494 365.968 204.073 365.693 204.53 365.142C204.997 364.591 205.23 363.989 205.23 363.336C205.23 362.636 204.978 362.039 204.474 361.544C203.97 361.04 203.41 360.788 202.794 360.788H199.672V365.968H202.794ZM213.018 377L220.186 356.756H225.758L232.926 377H227.55L226.206 373.08H219.822L218.45 377H213.018ZM220.97 368.432H224.974L222.986 361.964L220.97 368.432ZM235.242 377V356.756H243.334C246.162 356.756 248.22 357.218 249.508 358.142C250.805 359.057 251.454 360.377 251.454 362.104C251.454 363.037 251.22 363.863 250.754 364.582C250.287 365.301 249.428 365.968 248.178 366.584C249.064 366.845 249.76 367.177 250.264 367.578C250.777 367.979 251.15 368.409 251.384 368.866C251.617 369.323 251.766 369.781 251.832 370.238C251.897 370.686 251.93 371.101 251.93 371.484C251.93 373.369 251.304 374.76 250.054 375.656C248.812 376.552 246.722 377 243.782 377H235.242ZM240.688 372.912H243.978C244.78 372.912 245.382 372.697 245.784 372.268C246.185 371.829 246.386 371.344 246.386 370.812C246.386 370.439 246.292 370.107 246.106 369.818C245.919 369.519 245.653 369.286 245.308 369.118C244.972 368.941 244.575 368.852 244.118 368.852H240.688V372.912ZM240.688 364.652H244.118C244.444 364.652 244.734 364.605 244.986 364.512C245.247 364.419 245.466 364.293 245.644 364.134C245.83 363.966 245.97 363.77 246.064 363.546C246.166 363.313 246.218 363.065 246.218 362.804C246.218 362.197 245.994 361.721 245.546 361.376C245.107 361.021 244.566 360.844 243.922 360.844H240.688V364.652ZM255.312 356.756H260.758V372.52H268.85V377H255.312V356.756ZM271.499 377V356.756H286.451L286.423 361.264H276.987V364.624H284.883V369.02H276.945V372.464H286.479V377H271.499ZM295.097 356.756H300.543V377H295.097V356.756ZM304.312 377V356.756H312.404L315.68 369.104L318.984 356.756H327.048V377H321.588V362.328L317.64 377H313.72L309.758 362.328V377H304.312ZM330.835 377V356.756H338.843C340.337 356.756 341.681 357.022 342.875 357.554C344.079 358.086 345.031 358.865 345.731 359.892C346.431 360.909 346.781 362.151 346.781 363.616C346.781 364.951 346.487 366.099 345.899 367.06C345.311 368.012 344.476 368.745 343.393 369.258C342.311 369.771 341.027 370.028 339.543 370.028H336.281V377H330.835ZM336.225 365.968H339.375C340.066 365.968 340.64 365.693 341.097 365.142C341.555 364.591 341.783 363.989 341.783 363.336C341.783 362.636 341.531 362.039 341.027 361.544C340.533 361.04 339.982 360.788 339.375 360.788H336.225V365.968ZM345.881 377L353.049 356.756H358.621L365.789 377H360.413L359.069 373.08H352.685L351.313 377H345.881ZM353.833 368.432H357.837L355.849 361.964L353.833 368.432ZM376.108 356.476C377.714 356.476 379.151 356.793 380.42 357.428C381.69 358.053 382.716 358.926 383.5 360.046C384.284 361.157 384.751 362.44 384.9 363.896H379.216C379.114 363.271 378.922 362.729 378.642 362.272C378.362 361.815 377.994 361.465 377.536 361.222C377.088 360.97 376.552 360.844 375.926 360.844C375.245 360.844 374.638 361.021 374.106 361.376C373.574 361.731 373.154 362.337 372.846 363.196C372.548 364.045 372.398 365.212 372.398 366.696C372.398 368.945 372.73 370.546 373.392 371.498C374.055 372.441 374.9 372.912 375.926 372.912C376.552 372.912 377.088 372.753 377.536 372.436C377.994 372.119 378.362 371.699 378.642 371.176C378.922 370.644 379.114 370.065 379.216 369.44H384.9C384.76 370.485 384.522 371.479 384.186 372.422C383.86 373.365 383.37 374.205 382.716 374.942C382.072 375.67 381.214 376.244 380.14 376.664C379.067 377.075 377.723 377.28 376.108 377.28C374.158 377.28 372.454 376.818 370.998 375.894C369.552 374.97 368.427 373.705 367.624 372.1C366.822 370.495 366.42 368.665 366.42 366.612C366.42 364.559 366.817 362.776 367.61 361.264C368.404 359.743 369.524 358.567 370.97 357.736C372.426 356.896 374.139 356.476 376.108 356.476ZM386.35 361.544V356.756H403.346V361.544H397.55V377H392.09V361.544H386.35Z" fill="white"/>
<defs>
<clipPath id="clip0_1551_87">
<rect width="75.1835" height="98.6353" fill="white" transform="translate(207.241 96.1824)"/>
</clipPath>
</defs>
</svg>
