<svg width="24" height="25" viewBox="0 0 24 25" fill="none" xmlns="http://www.w3.org/2000/svg">
<g id="White / LinkedIn">
<path id="Vector" d="M22.2234 0.942139H1.77187C0.792187 0.942139 0 1.71558 0 2.67183V23.2078C0 24.164 0.792187 24.9421 1.77187 24.9421H22.2234C23.2031 24.9421 24 24.164 24 23.2125V2.67183C24 1.71558 23.2031 0.942139 22.2234 0.942139ZM7.12031 21.3937H3.55781V9.93745H7.12031V21.3937ZM5.33906 8.37651C4.19531 8.37651 3.27188 7.45308 3.27188 6.31401C3.27188 5.17495 4.19531 4.25151 5.33906 4.25151C6.47813 4.25151 7.40156 5.17495 7.40156 6.31401C7.40156 7.44839 6.47813 8.37651 5.33906 8.37651ZM20.4516 21.3937H16.8937V15.825C16.8937 14.4984 16.8703 12.7875 15.0422 12.7875C13.1906 12.7875 12.9094 14.2359 12.9094 15.7312V21.3937H9.35625V9.93745H12.7687V11.5031H12.8156C13.2891 10.6031 14.4516 9.65151 16.1813 9.65151C19.7859 9.65151 20.4516 12.0234 20.4516 15.1078V21.3937Z" fill="#FFC000"/>
</g>
</svg>
