<svg width="175" height="66" viewBox="0 0 175 66" fill="none" xmlns="http://www.w3.org/2000/svg">
<path d="M18.9583 36.147C14.3711 36.147 9.78286 36.147 5.19559 36.147C4.65525 36.147 4.5847 36.0903 4.41294 35.5741C3.92645 34.1128 3.43068 32.6552 2.9507 31.1921C2.78915 30.6981 2.96369 30.4763 3.48267 30.4763C6.41552 30.4744 9.34744 30.4753 12.2803 30.4753C19.6231 30.4753 26.9649 30.4753 34.3077 30.4753C34.991 30.4753 35.1507 30.6833 34.9372 31.3304C34.4498 32.8028 33.9494 34.2707 33.461 35.7431C33.3487 36.0829 33.1073 36.1507 32.7879 36.1507C29.4447 36.1451 26.1006 36.1479 22.7574 36.1479C21.491 36.1479 20.2247 36.147 18.9583 36.147ZM35.1136 29.6379C35.2528 29.6342 35.3893 29.5413 35.5267 29.4903C35.4469 29.3547 35.3995 29.1728 35.2826 29.0901C33.6736 27.9473 32.0563 26.8146 30.4381 25.6847C28.9016 24.6115 27.3586 23.5485 25.823 22.4734C23.6422 20.9471 21.4641 19.4161 19.2898 17.8805C19.067 17.7236 18.8748 17.706 18.652 17.8629C17.9631 18.3484 17.2668 18.8238 16.5788 19.3094C15.4369 20.1143 14.3024 20.9304 13.1576 21.7316C11.6508 22.7853 10.1347 23.8261 8.62699 24.8789C6.98185 26.0273 5.34042 27.1823 3.69807 28.3353C3.30813 28.6092 2.91356 28.8785 2.53477 29.1663C2.454 29.2275 2.37044 29.3854 2.39644 29.4615C2.42429 29.5441 2.57376 29.5998 2.68053 29.637C2.76037 29.6648 2.856 29.6444 2.94512 29.6444C4.21148 29.6444 5.47783 29.6342 6.74418 29.6509C7.08769 29.6555 7.3625 29.5534 7.63452 29.3594C9.11533 28.3047 10.6008 27.2565 12.0881 26.2121C14.2847 24.67 16.485 23.1335 18.6807 21.5895C18.8729 21.454 19.0447 21.4456 19.2285 21.583C19.3083 21.6424 19.3808 21.713 19.4634 21.7687C21.3137 23.0313 23.1677 24.2903 25.0162 25.5557C26.9102 26.8527 28.7976 28.1608 30.6971 29.4504C30.868 29.5664 31.1047 29.6286 31.3136 29.636C31.9347 29.6602 32.5577 29.6444 33.1797 29.6444C33.824 29.6444 34.4693 29.6537 35.1136 29.6379ZM17.9148 38.0409C17.9148 37.3084 17.6066 36.9955 16.862 36.9937C15.1184 36.99 13.3758 36.99 11.6323 36.9937C10.909 36.9955 10.5841 37.3112 10.5831 38.027C10.5785 41.0805 10.5813 44.1341 10.5813 47.1876C10.5813 47.2433 10.5841 47.299 10.5896 47.3538C10.6472 47.883 10.9517 48.181 11.4883 48.1829C13.3312 48.1903 15.1741 48.1903 17.018 48.1829C17.6047 48.1801 17.9148 47.8514 17.9148 47.2684C17.9157 45.7142 17.9148 44.1591 17.9148 42.605C17.9148 41.0833 17.9148 39.5626 17.9148 38.0409ZM19.0781 47.2053C19.079 47.8728 19.39 48.1838 20.0557 48.1847C21.8215 48.1875 23.5883 48.1875 25.3541 48.1847C26.0087 48.1838 26.3448 47.8514 26.3457 47.2053C26.3475 44.1397 26.3475 41.0731 26.3457 38.0075C26.3457 37.366 25.9873 36.9983 25.3346 36.9955C23.58 36.989 21.8243 36.989 20.0696 36.9955C19.3993 36.9983 19.079 37.3353 19.0781 38.0084C19.0762 39.5301 19.0781 41.0518 19.0781 42.5744C19.0781 44.1183 19.0762 45.6622 19.079 47.2071L19.0781 47.2053ZM28.351 29.7475C28.585 29.7475 28.818 29.7094 28.8115 29.4485C28.8078 29.299 28.6546 29.1124 28.5172 29.014C27.8144 28.5108 27.0958 28.0299 26.3819 27.5425C24.0293 25.9363 21.673 24.3348 19.3278 22.7185C19.0493 22.5272 18.8534 22.5402 18.587 22.7287C16.9511 23.8855 15.305 25.0274 13.6627 26.174C12.2896 27.1321 10.9164 28.0902 9.54519 29.0511C9.28245 29.235 9.19982 29.4838 9.37436 29.624C9.4802 29.7094 9.65567 29.74 9.8005 29.741C12.8754 29.7475 15.9512 29.7456 19.0261 29.7456C22.1344 29.7456 25.2427 29.7428 28.351 29.7475ZM27.6055 47.6212C27.6055 47.8756 27.6492 48.103 27.9286 48.1671C28.2331 48.2367 28.4012 48.0548 28.5089 47.792C28.6593 47.4225 28.8162 47.0558 28.9694 46.6872C29.5738 45.2342 30.1726 43.7794 30.7816 42.3293C31.4167 40.8178 32.0628 39.3119 32.6997 37.8014C32.9235 37.2694 32.7424 36.9965 32.1594 36.9937C30.8383 36.9881 29.5171 36.989 28.196 36.9937C27.7374 36.9955 27.6074 37.1348 27.6074 37.5962C27.6074 39.2506 27.6074 40.9041 27.6074 42.5586C27.6074 44.2464 27.6092 45.9333 27.6055 47.6212ZM9.38272 37.5674C9.38272 37.1673 9.26109 37.0039 8.89623 36.9993C7.78585 36.9863 6.67547 36.9844 5.5651 36.9974C5.16867 37.002 5.01176 37.236 5.10368 37.6166C5.1241 37.703 5.15195 37.7875 5.18073 37.871C5.78513 39.6434 6.39231 41.4138 6.99392 43.1871C7.51754 44.7301 8.03095 46.2759 8.55922 47.8171C8.60099 47.9396 8.69941 48.0798 8.80896 48.1337C9.13297 48.2906 9.38086 48.078 9.38179 47.6611C9.38364 45.9733 9.38179 44.2854 9.38179 42.5976C9.38179 40.9209 9.38272 39.2441 9.38272 37.5674Z" fill="url(#paint0_linear_1198_251)"/>
<path d="M142.172 47.4406C140.72 47.4406 139.355 47.465 137.994 47.415C137.778 47.4068 137.484 47.0983 137.382 46.8619C136.557 44.9454 135.751 43.0197 134.98 41.0799C134.787 40.5932 134.573 40.3708 134.006 40.3743C129.914 40.4011 125.822 40.3965 121.729 40.3778C121.23 40.3755 120.975 40.5152 120.785 40.9996C120.024 42.9428 119.199 44.8616 118.431 46.8014C118.249 47.2613 118.031 47.4732 117.504 47.4546C116.277 47.4126 115.047 47.4406 113.704 47.4406C113.804 47.1448 113.863 46.9143 113.957 46.6977C117.907 37.5963 121.867 28.4995 125.799 19.391C126.045 18.8193 126.348 18.6156 126.947 18.6586C127.908 18.7285 129.083 18.413 129.779 18.8612C130.443 19.2885 130.62 20.482 130.993 21.3459C134.622 29.7755 138.247 38.2075 141.872 46.6395C141.971 46.8689 142.049 47.1064 142.174 47.4383L142.172 47.4406ZM133.188 36.7987C131.418 32.3464 129.679 27.9732 127.859 23.3997C126.017 28.0058 124.272 32.3673 122.5 36.7987H133.188Z" fill="#FDFCFB"/>
<path d="M76.6112 22.2156C75.3956 23.1517 74.3629 23.9469 73.2975 24.7678C71.4567 22.6173 69.156 21.4809 66.3838 21.4168C60.4539 21.2783 55.7699 25.5164 55.2517 31.444C54.9292 35.1279 55.6569 38.5009 58.1928 41.3337C62.006 45.5928 69.9967 45.8466 73.5048 41.0193C73.5548 40.9494 73.6084 40.8819 73.7108 40.748C74.7937 41.4862 75.8416 42.2011 76.9546 42.9602C75.4957 44.9209 73.712 46.4183 71.4823 47.1553C65.5688 49.1113 60.0348 48.3918 55.3088 44.1211C52.1244 41.244 50.7749 37.453 50.7447 33.2009C50.7074 27.7321 52.6367 23.1552 57.4209 20.2653C62.7453 17.0495 68.3049 16.8981 73.8075 19.9475C74.8041 20.4994 75.6099 21.3936 76.6112 22.2167V22.2156Z" fill="#FDFCFB"/>
<path d="M88.5425 18.6787C90.0002 18.6787 91.366 18.6426 92.7259 18.7159C92.9459 18.7276 93.2196 19.198 93.3348 19.5054C95.4224 25.1348 97.4891 30.7725 99.5604 36.4078C100.259 38.3068 100.96 40.2046 101.737 42.312C101.92 41.8393 102.033 41.5599 102.137 41.2781C104.815 34.0069 107.501 26.7404 110.151 19.4599C110.378 18.837 110.66 18.6251 111.308 18.6566C112.444 18.7113 113.583 18.6717 114.854 18.6717C113.967 20.9316 113.126 23.0728 112.284 25.214C109.479 32.3443 106.664 39.4722 103.885 46.613C103.637 47.2511 103.35 47.5212 102.654 47.4583C101.695 47.3721 100.508 47.7145 99.8236 47.2615C99.175 46.8319 99.0365 45.6175 98.6942 44.7408C95.4248 36.3798 92.16 28.0177 88.8953 19.6544C88.7847 19.3715 88.688 19.0827 88.5425 18.6799V18.6787Z" fill="#FDFCFB"/>
<path d="M84.9428 47.4161H81.054V18.7273H84.9428V47.4161Z" fill="#FDFCFB"/>
<defs>
<linearGradient id="paint0_linear_1198_251" x1="18.9602" y1="48.1884" x2="18.9602" y2="17.7533" gradientUnits="userSpaceOnUse">
<stop stop-color="#F9AB33"/>
<stop offset="1" stop-color="#F3C150"/>
</linearGradient>
</defs>
</svg>
