<svg width="138" height="52" viewBox="0 0 138 52" fill="none" xmlns="http://www.w3.org/2000/svg">
<path d="M26.95 28.5044C23.3326 28.5044 19.7145 28.5044 16.0971 28.5044C15.671 28.5044 15.6154 28.4598 15.48 28.0527C15.0963 26.9004 14.7054 25.751 14.3269 24.5971C14.1995 24.2076 14.3371 24.0327 14.7464 24.0327C17.0591 24.0312 19.3712 24.0319 21.6839 24.0319C27.4742 24.0319 33.2638 24.0319 39.0541 24.0319C39.593 24.0319 39.7189 24.1959 39.5505 24.7062C39.1661 25.8674 38.7715 27.0248 38.3864 28.186C38.2978 28.4539 38.1075 28.5074 37.8557 28.5074C35.2193 28.503 32.5822 28.5052 29.9459 28.5052C28.9472 28.5052 27.9486 28.5044 26.95 28.5044ZM39.6896 23.3716C39.7994 23.3686 39.907 23.2954 40.0154 23.2552C39.9524 23.1483 39.9151 23.0048 39.8228 22.9396C38.5541 22.0384 37.2787 21.1452 36.0027 20.2542C34.791 19.4079 33.5742 18.5696 32.3633 17.7218C30.6436 16.5182 28.926 15.311 27.2114 14.1C27.0357 13.9763 26.8841 13.9624 26.7084 14.0861C26.1652 14.469 25.6161 14.8439 25.0736 15.2268C24.1731 15.8615 23.2785 16.505 22.3758 17.1369C21.1875 17.9678 19.992 18.7885 18.803 19.6187C17.5057 20.5244 16.2113 21.4351 14.9162 22.3444C14.6087 22.5604 14.2976 22.7727 13.9989 22.9997C13.9352 23.048 13.8693 23.1724 13.8898 23.2325C13.9118 23.2976 14.0296 23.3416 14.1138 23.3708C14.1768 23.3928 14.2522 23.3767 14.3225 23.3767C15.3211 23.3767 16.3197 23.3686 17.3183 23.3818C17.5892 23.3855 17.8059 23.3049 18.0204 23.1519C19.1881 22.3203 20.3595 21.4937 21.5324 20.6701C23.2646 19.454 24.9997 18.2424 26.7311 17.0249C26.8827 16.918 27.0181 16.9114 27.1631 17.0197C27.226 17.0666 27.2831 17.1222 27.3483 17.1661C28.8074 18.1618 30.2695 19.1546 31.7271 20.1525C33.2206 21.1752 34.709 22.2068 36.2069 23.2237C36.3416 23.3152 36.5283 23.3643 36.693 23.3701C37.1828 23.3891 37.6741 23.3767 38.1646 23.3767C38.6727 23.3767 39.1815 23.384 39.6896 23.3716ZM26.1271 29.998C26.1271 29.4203 25.8841 29.1736 25.2969 29.1721C23.922 29.1692 22.5478 29.1692 21.1729 29.1721C20.6026 29.1736 20.3463 29.4225 20.3456 29.987C20.3419 32.3949 20.3441 34.8028 20.3441 37.2108C20.3441 37.2547 20.3463 37.2986 20.3507 37.3418C20.3961 37.7591 20.6363 37.9941 21.0594 37.9956C22.5127 38.0015 23.9659 38.0015 25.4199 37.9956C25.8826 37.9934 26.1271 37.7342 26.1271 37.2745C26.1279 36.0489 26.1271 34.8226 26.1271 33.597C26.1271 32.3971 26.1271 31.1979 26.1271 29.998ZM27.0445 37.2247C27.0452 37.7511 27.2905 37.9963 27.8154 37.9971C29.2079 37.9993 30.6011 37.9993 31.9936 37.9971C32.5097 37.9963 32.7748 37.7342 32.7755 37.2247C32.777 34.8072 32.777 32.3891 32.7755 29.9716C32.7755 29.4657 32.4929 29.1758 31.9782 29.1736C30.5945 29.1685 29.2101 29.1685 27.8264 29.1736C27.2978 29.1758 27.0452 29.4416 27.0445 29.9723C27.043 31.1723 27.0445 32.3722 27.0445 33.5729C27.0445 34.7904 27.043 36.0079 27.0452 37.2262L27.0445 37.2247ZM34.3569 23.458C34.5414 23.458 34.7251 23.4279 34.72 23.2222C34.7171 23.1043 34.5963 22.9572 34.4879 22.8796C33.9337 22.4828 33.367 22.1035 32.804 21.7192C30.9489 20.4526 29.0907 19.1897 27.2414 17.9151C27.0218 17.7643 26.8673 17.7745 26.6572 17.9232C25.3672 18.8354 24.0692 19.7359 22.774 20.64C21.6912 21.3956 20.6084 22.1511 19.5271 22.9089C19.3199 23.0538 19.2548 23.25 19.3924 23.3606C19.4759 23.4279 19.6142 23.4521 19.7284 23.4528C22.1532 23.458 24.5787 23.4565 27.0035 23.4565C29.4546 23.4565 31.9057 23.4543 34.3569 23.458ZM33.769 37.5527C33.769 37.7533 33.8034 37.9326 34.0237 37.9832C34.2639 38.0381 34.3964 37.8946 34.4813 37.6874C34.5999 37.396 34.7237 37.1068 34.8445 36.8162C35.3211 35.6704 35.7933 34.5232 36.2735 33.3796C36.7743 32.1877 37.2839 31.0002 37.7861 29.8091C37.9625 29.3896 37.8198 29.1743 37.36 29.1721C36.3182 29.1677 35.2764 29.1685 34.2346 29.1721C33.8729 29.1736 33.7704 29.2834 33.7704 29.6473C33.7704 30.9519 33.7704 32.2558 33.7704 33.5604C33.7704 34.8914 33.7719 36.2217 33.769 37.5527ZM19.399 29.6246C19.399 29.309 19.3031 29.1802 19.0153 29.1765C18.1397 29.1663 17.2641 29.1648 16.3885 29.1751C16.0759 29.1787 15.9522 29.3632 16.0247 29.6634C16.0408 29.7315 16.0627 29.7981 16.0854 29.864C16.562 31.2616 17.0408 32.6577 17.5152 34.0561C17.9282 35.2729 18.333 36.4918 18.7496 37.7072C18.7825 37.8038 18.8601 37.9143 18.9465 37.9568C19.202 38.0805 19.3975 37.9129 19.3982 37.5842C19.3997 36.2532 19.3982 34.9222 19.3982 33.5912C19.3982 32.269 19.399 30.9468 19.399 29.6246Z" fill="url(#paint0_linear_287_2996)"/>
<path d="M124.113 37.41C122.968 37.41 121.891 37.4293 120.818 37.3898C120.648 37.3834 120.416 37.1401 120.336 36.9537C119.685 35.4425 119.05 33.9238 118.442 32.3942C118.289 32.0104 118.12 31.8351 117.673 31.8378C114.447 31.8589 111.22 31.8552 107.992 31.8406C107.598 31.8387 107.397 31.9489 107.248 32.3309C106.647 33.8632 105.997 35.3763 105.391 36.906C105.248 37.2687 105.076 37.4358 104.66 37.4211C103.693 37.388 102.723 37.41 101.664 37.41C101.743 37.1768 101.789 36.995 101.864 36.8243C104.978 29.6471 108.101 22.4736 111.201 15.2909C111.396 14.8401 111.635 14.6795 112.107 14.7134C112.865 14.7685 113.791 14.5197 114.34 14.8732C114.864 15.2101 115.003 16.1512 115.297 16.8325C118.159 23.4799 121.018 30.1291 123.876 36.7784C123.954 36.9592 124.016 37.1465 124.114 37.4082L124.113 37.41ZM117.029 29.0182C115.632 25.5072 114.261 22.0586 112.826 18.4521C111.374 22.0843 109.998 25.5237 108.6 29.0182H117.029Z" fill="#010101"/>
<path d="M72.4134 17.5185C71.4548 18.2567 70.6404 18.8838 69.8003 19.5311C68.3487 17.8353 66.5345 16.9392 64.3484 16.8887C59.6722 16.7794 55.9785 20.1215 55.5699 24.7958C55.3156 27.7008 55.8895 30.3607 57.8892 32.5945C60.8961 35.9531 67.1974 36.1533 69.9638 32.3466C70.0032 32.2915 70.0455 32.2383 70.1263 32.1327C70.9801 32.7148 71.8065 33.2785 72.6842 33.8772C71.5338 35.4233 70.1272 36.6041 68.3689 37.1853C63.7057 38.7278 59.3417 38.1603 55.6149 34.7926C53.1038 32.5238 52.0397 29.5343 52.0158 26.1813C51.9864 21.8687 53.5078 18.2595 57.2805 15.9806C61.4791 13.4447 65.8633 13.3253 70.2025 15.73C70.9884 16.1652 71.6238 16.8703 72.4134 17.5194V17.5185Z" fill="#010101"/>
<path d="M81.8218 14.7293C82.9713 14.7293 84.0483 14.7008 85.1207 14.7587C85.2942 14.7678 85.51 15.1388 85.6009 15.3812C87.2471 19.8204 88.8768 24.2661 90.5102 28.7099C91.0611 30.2074 91.6138 31.704 92.2262 33.3659C92.3713 32.9931 92.4604 32.7727 92.5421 32.5505C94.6538 26.8167 96.772 21.0865 98.8617 15.3454C99.0407 14.8542 99.2629 14.6871 99.7743 14.7118C100.67 14.755 101.568 14.7238 102.57 14.7238C101.87 16.5059 101.208 18.1944 100.544 19.8829C98.3319 25.5056 96.1118 31.1265 93.9202 36.7575C93.7247 37.2606 93.4988 37.4736 92.9497 37.4241C92.1932 37.3561 91.2576 37.6261 90.7177 37.2689C90.2063 36.9301 90.097 35.9725 89.8271 35.2811C87.249 28.6879 84.6745 22.0938 82.1 15.4987C82.0128 15.2756 81.9365 15.0479 81.8218 14.7302V14.7293Z" fill="#010101"/>
<path d="M78.9834 37.391H75.9167V14.7678H78.9834V37.391Z" fill="#010101"/>
<defs>
<linearGradient id="paint0_linear_287_2996" x1="26.9515" y1="38" x2="26.9515" y2="13.9997" gradientUnits="userSpaceOnUse">
<stop stop-color="#F9AB33"/>
<stop offset="1" stop-color="#F3C150"/>
</linearGradient>
</defs>
</svg>
