<svg width="73" height="86" viewBox="0 0 73 86" fill="none" xmlns="http://www.w3.org/2000/svg">
<path d="M36.0479 30.2176C28.5117 30.2176 20.974 30.2176 13.4377 30.2176C12.55 30.2176 12.4341 30.1245 12.1519 29.2765C11.3527 26.8758 10.5382 24.4811 9.74969 22.0774C9.4843 21.2659 9.77104 20.9014 10.6237 20.9014C15.4419 20.8983 20.2586 20.8999 25.0769 20.8999C37.14 20.8999 49.2016 20.8999 61.2648 20.8999C62.3874 20.8999 62.6497 21.2415 62.2989 22.3046C61.4982 24.7237 60.6761 27.1351 59.8738 29.5541C59.6892 30.1123 59.2927 30.2237 58.768 30.2237C53.2756 30.2145 47.7816 30.2191 42.2892 30.2191C40.2088 30.2191 38.1284 30.2176 36.0479 30.2176ZM62.5887 19.5241C62.8175 19.518 63.0417 19.3655 63.2674 19.2816C63.1363 19.0589 63.0585 18.76 62.8663 18.6242C60.2231 16.7466 57.5661 14.8858 54.9076 13.0296C52.3833 11.2664 49.8483 9.52004 47.3256 7.7538C43.7428 5.2463 40.1646 2.73118 36.5925 0.208424C36.2264 -0.0493421 35.9107 -0.0783218 35.5446 0.179444C34.4129 0.977147 33.2689 1.75807 32.1387 2.55577C30.2627 3.87816 28.3988 5.21885 26.5182 6.53513C24.0427 8.26629 21.552 9.97608 19.075 11.7057C16.3723 13.5924 13.6757 15.4898 10.9775 17.3842C10.3369 17.8341 9.68868 18.2765 9.06638 18.7493C8.93368 18.85 8.79641 19.1092 8.83912 19.2343C8.88487 19.3701 9.13044 19.4616 9.30584 19.5226C9.43701 19.5683 9.59411 19.5348 9.74054 19.5348C11.821 19.5348 13.9014 19.518 15.9818 19.5455C16.5462 19.5531 16.9976 19.3853 17.4445 19.0665C19.8773 17.3339 22.3177 15.6119 24.7611 13.896C28.3699 11.3625 31.9847 8.83825 35.5919 6.30177C35.9076 6.07909 36.1898 6.06536 36.4918 6.2911C36.623 6.38871 36.7419 6.50463 36.8777 6.59614C39.9175 8.67048 42.9634 10.7387 46.0002 12.8176C49.1117 14.9484 52.2125 17.0974 55.3331 19.216C55.6138 19.4067 56.0027 19.5089 56.3459 19.5211C57.3663 19.5607 58.3897 19.5348 59.4116 19.5348C60.4701 19.5348 61.5302 19.55 62.5887 19.5241ZM34.3336 33.3291C34.3336 32.1257 33.8272 31.6117 32.6039 31.6086C29.7395 31.6025 26.8767 31.6025 24.0122 31.6086C22.8241 31.6117 22.2902 32.1302 22.2887 33.3062C22.2811 38.3227 22.2857 43.3393 22.2857 48.3558C22.2857 48.4473 22.2902 48.5388 22.2994 48.6288C22.394 49.4982 22.8942 49.9878 23.7758 49.9908C26.8034 50.003 29.831 50.003 32.8602 49.9908C33.8241 49.9863 34.3336 49.4463 34.3336 48.4885C34.3351 45.9352 34.3336 43.3804 34.3336 40.8272C34.3336 38.3273 34.3336 35.829 34.3336 33.3291ZM36.2447 48.3848C36.2462 49.4814 36.7572 49.9924 37.8508 49.9939C40.7518 49.9985 43.6543 49.9985 46.5553 49.9939C47.6306 49.9924 48.1828 49.4463 48.1843 48.3848C48.1874 43.3484 48.1874 38.3105 48.1843 33.2742C48.1843 32.2202 47.5956 31.6162 46.5233 31.6117C43.6406 31.601 40.7564 31.601 37.8737 31.6117C36.7724 31.6162 36.2462 32.1699 36.2447 33.2757C36.2416 35.7756 36.2447 38.2755 36.2447 40.7769C36.2447 43.3133 36.2416 45.8498 36.2462 48.3878L36.2447 48.3848ZM51.4788 19.7041C51.8632 19.7041 52.246 19.6416 52.2354 19.213C52.2293 18.9674 51.9776 18.6608 51.7519 18.4991C50.5972 17.6725 49.4167 16.8824 48.2438 16.0816C44.3788 13.443 40.5078 10.8119 36.655 8.15647C36.1974 7.84227 35.8756 7.86362 35.4378 8.17325C32.7504 10.0737 30.0461 11.9497 27.348 13.8334C25.0921 15.4075 22.8363 16.9815 20.5835 18.5602C20.1519 18.8622 20.0161 19.2709 20.3028 19.5012C20.4767 19.6416 20.765 19.6919 21.0029 19.6934C26.0545 19.7041 31.1077 19.701 36.1593 19.701C41.2658 19.701 46.3723 19.6965 51.4788 19.7041ZM50.2541 49.0681C50.2541 49.486 50.3257 49.8597 50.7848 49.9649C51.2851 50.0793 51.5612 49.7804 51.7381 49.3487C51.9852 48.7417 52.243 48.1392 52.4947 47.5337C53.4876 45.1467 54.4714 42.7566 55.4719 40.3742C56.5152 37.8911 57.5768 35.4171 58.6231 32.9356C58.9907 32.0616 58.6932 31.6132 57.7354 31.6086C55.565 31.5995 53.3945 31.601 51.2241 31.6086C50.4706 31.6117 50.2571 31.8404 50.2571 32.5985C50.2571 35.3165 50.2571 38.0329 50.2571 40.7509C50.2571 43.5238 50.2602 46.2952 50.2541 49.0681ZM20.3166 32.5512C20.3166 31.8938 20.1168 31.6254 19.5174 31.6178C17.6932 31.5964 15.869 31.5934 14.0448 31.6147C13.3935 31.6223 13.1357 32.0067 13.2867 32.632C13.3203 32.7739 13.366 32.9127 13.4133 33.05C14.4063 35.9617 15.4038 38.8703 16.3921 41.7835C17.2524 44.3185 18.0958 46.858 18.9637 49.3899C19.0323 49.5912 19.194 49.8215 19.374 49.91C19.9063 50.1678 20.3135 49.8185 20.3151 49.1337C20.3181 46.3608 20.3151 43.5879 20.3151 40.815C20.3151 38.0604 20.3166 35.3058 20.3166 32.5512Z" fill="url(#paint0_linear_1476_228)"/>
<path d="M72.0977 85.41C70.9528 85.41 69.8758 85.4293 68.8025 85.3898C68.6326 85.3834 68.4003 85.1401 68.3204 84.9537C67.6695 83.4425 67.0341 81.9238 66.4263 80.3942C66.2739 80.0104 66.105 79.8351 65.6578 79.8378C62.4314 79.8589 59.2042 79.8552 55.9769 79.8406C55.583 79.8387 55.3819 79.9489 55.2322 80.3309C54.6318 81.8632 53.9817 83.3763 53.3758 84.906C53.2325 85.2687 53.0608 85.4358 52.6449 85.4211C51.6772 85.388 50.7076 85.41 49.6481 85.41C49.727 85.1768 49.7739 84.995 49.8482 84.8243C52.9626 77.6471 56.0852 70.4736 59.1858 63.2909C59.3804 62.8401 59.6192 62.6795 60.0911 62.7134C60.8495 62.7685 61.7759 62.5197 62.3249 62.8732C62.8483 63.2101 62.9878 64.1512 63.2817 64.8325C66.1435 71.4799 69.0026 78.1291 71.8608 84.7784C71.9389 84.9592 72.0004 85.1465 72.0986 85.4082L72.0977 85.41ZM65.0133 77.0182C63.6168 73.5072 62.246 70.0586 60.8109 66.4521C59.3584 70.0843 57.9821 73.5237 56.5847 77.0182H65.0133Z" fill="#fff"/>
<path d="M20.398 65.5185C19.4394 66.2567 18.625 66.8838 17.7849 67.5311C16.3334 65.8353 14.5191 64.9392 12.333 64.8887C7.65685 64.7794 3.96314 68.1215 3.55457 72.7958C3.30024 75.7008 3.87408 78.3607 5.87381 80.5945C8.88074 83.9531 15.182 84.1533 17.9484 80.3466C17.9879 80.2915 18.0301 80.2383 18.1109 80.1327C18.9648 80.7148 19.7911 81.2785 20.6688 81.8772C19.5184 83.4233 18.1118 84.6041 16.3536 85.1853C11.6903 86.7278 7.32632 86.1603 3.59956 82.7926C1.08842 80.5238 0.0242887 77.5343 0.000416895 74.1813C-0.0289638 69.8687 1.49241 66.2595 5.26508 63.9806C9.46377 61.4447 13.8479 61.3253 18.1871 63.73C18.973 64.1652 19.6084 64.8703 20.398 65.5194V65.5185Z" fill="#fff"/>
<path d="M29.8064 62.7293C30.9559 62.7293 32.0329 62.7008 33.1053 62.7587C33.2788 62.7678 33.4946 63.1388 33.5855 63.3812C35.2317 67.8204 36.8614 72.2661 38.4948 76.7099C39.0457 78.2074 39.5984 79.704 40.2109 81.3659C40.3559 80.9931 40.445 80.7727 40.5267 80.5505C42.6384 74.8167 44.7566 69.0865 46.8463 63.3454C47.0253 62.8542 47.2475 62.6871 47.7589 62.7118C48.6541 62.755 49.553 62.7238 50.5547 62.7238C49.8551 64.5059 49.1922 66.1944 48.5284 67.8829C46.3165 73.5056 44.0965 79.1265 41.9048 84.7575C41.7093 85.2606 41.4834 85.4736 40.9344 85.4241C40.1778 85.3561 39.2422 85.6261 38.7023 85.2689C38.1909 84.9301 38.0817 83.9725 37.8117 83.2811C35.2336 76.6879 32.6591 70.0938 30.0846 63.4987C29.9974 63.2756 29.9212 63.0479 29.8064 62.7302V62.7293Z" fill="#fff"/>
<path d="M26.9679 85.391H23.9012V62.7678H26.9679V85.391Z" fill="#fff"/>
<defs>
<linearGradient id="paint0_linear_1476_228" x1="36.051" y1="50" x2="36.051" y2="-0.000533467" gradientUnits="userSpaceOnUse">
<stop stop-color="#F9AB33"/>
<stop offset="1" stop-color="#F3C150"/>
</linearGradient>
</defs>
</svg>
