<svg width="90" height="79" viewBox="0 0 90 79" fill="none" xmlns="http://www.w3.org/2000/svg">
<path id="Vector" d="M90 59.2758C90 48.8016 81.4882 40.2851 71.0329 40.2851C62.9075 40.2851 55.9646 45.4255 53.2659 52.6291L49.373 49.9387C49.771 49.2177 49.9935 48.3913 49.9935 47.5121C49.9935 45.0269 48.1905 42.9637 45.8313 42.5475V37.964C49.3964 37.7998 52.7039 36.651 55.4904 34.7754C60.5659 31.3641 63.9203 25.5672 63.9203 18.9966C63.9261 8.5165 55.4202 0 44.959 0C34.4979 0 25.9919 8.5165 25.9919 18.9908C25.9919 29.465 34.0295 37.5009 44.0809 37.9581V42.5417C41.7159 42.9578 39.9187 45.0269 39.9187 47.5062C39.9187 48.3503 40.1294 49.1416 40.4982 49.8449L36.6814 52.4825C33.9476 45.3551 27.0398 40.2792 18.9729 40.2792C8.5118 40.2851 0 48.8016 0 59.2758C0 65.8464 3.34851 71.6433 8.4298 75.0546C11.4446 77.0826 15.0683 78.2666 18.9671 78.2666C29.4283 78.2666 37.9342 69.7501 37.9342 59.2758C37.9342 57.5291 37.6942 55.8411 37.2493 54.2292L41.5754 51.2399C42.4711 52.0546 43.6594 52.5587 44.959 52.5587C46.2586 52.5587 47.3826 52.0839 48.2724 51.3044L52.7098 54.3757C52.2941 55.9407 52.0658 57.5819 52.0658 59.2758C52.0658 65.8464 55.4143 71.6433 60.4956 75.0546C63.5105 77.0767 67.1341 78.2607 71.0329 78.2607C74.9317 78.2607 78.5553 77.0767 81.5702 75.0487C86.6456 71.6374 90 65.8405 90 59.27V59.2758ZM9.7997 73.8471C9.7119 73.261 9.6592 72.6631 9.6592 72.0653C9.6592 68.0913 11.632 64.469 14.7229 62.6637C15.9347 63.4901 17.3982 63.9766 18.9671 63.9766C20.536 63.9766 22.0053 63.4901 23.2113 62.6637C26.3022 64.469 28.275 68.0913 28.275 72.0653C28.275 72.6631 28.2223 73.261 28.1345 73.8471C25.4768 75.5293 22.339 76.5023 18.9671 76.5023C15.5952 76.5023 12.4574 75.5235 9.7997 73.8471ZM18.9671 62.2241C15.7708 62.2241 13.1716 59.6216 13.1716 56.4213C13.1716 53.2211 15.7708 50.6186 18.9671 50.6186C22.1634 50.6186 24.7626 53.2211 24.7626 56.4213C24.7626 59.6216 22.1634 62.2241 18.9671 62.2241ZM30.0137 72.4756C30.0137 72.3408 30.0312 72.206 30.0312 72.0711C30.0312 67.6869 27.9238 63.6543 24.587 61.4562C25.787 60.1199 26.5188 58.3556 26.5188 56.4213C26.5188 52.2539 23.1293 48.8602 18.9671 48.8602C14.8049 48.8602 11.4154 52.2539 11.4154 56.4213C11.4154 58.3556 12.153 60.114 13.3472 61.4562C10.0104 63.6543 7.903 67.6869 7.903 72.0711C7.903 72.206 7.9147 72.3408 7.9205 72.4756C4.15637 69.3105 1.75621 64.5686 1.75621 59.2758C1.75621 49.7746 9.4777 42.0435 18.9671 42.0435C28.4565 42.0435 36.178 49.7746 36.178 59.2758C36.178 64.5686 33.7778 69.3163 30.0137 72.4756ZM35.7975 33.5679C35.7096 32.9818 35.657 32.3898 35.657 31.7861C35.657 27.8121 37.6298 24.1898 40.7207 22.3845C41.9325 23.2109 43.396 23.6974 44.9649 23.6974C46.5338 23.6974 48.0031 23.2109 49.2149 22.3845C52.3058 24.1898 54.2728 27.8121 54.2728 31.7861C54.2728 32.384 54.2201 32.976 54.1323 33.5679C51.4746 35.2502 48.3368 36.2231 44.9649 36.2231C41.5929 36.2231 38.4552 35.2443 35.7975 33.5679ZM44.9649 21.9449C41.7686 21.9449 39.1694 19.3425 39.1694 16.1422C39.1694 12.9419 41.7686 10.3394 44.9649 10.3394C48.1612 10.3394 50.7604 12.9419 50.7604 16.1422C50.7604 19.3425 48.1612 21.9449 44.9649 21.9449ZM27.754 18.9966C27.754 9.4954 35.4755 1.76427 44.9649 1.76427C54.4543 1.76427 62.1757 9.4954 62.1757 18.9966C62.1757 24.2894 59.7756 29.0371 56.0114 32.1964C56.0114 32.0616 56.029 31.9268 56.029 31.792C56.029 27.4077 53.9216 23.3751 50.5848 21.1771C51.7848 19.8407 52.5166 18.0764 52.5166 16.1422C52.5166 11.9747 49.1271 8.581 44.9649 8.581C40.8027 8.581 37.4132 11.9747 37.4132 16.1422C37.4132 18.0764 38.1508 19.8348 39.345 21.1771C36.0082 23.3751 33.9007 27.4077 33.9007 31.792C33.9007 31.9268 33.9124 32.0616 33.9183 32.1964C30.1542 29.0313 27.754 24.2894 27.754 18.9966ZM44.9649 50.8062C43.156 50.8062 41.6808 49.3291 41.6808 47.518C41.6808 45.7068 43.156 44.2297 44.9649 44.2297C46.7738 44.2297 48.249 45.7068 48.249 47.518C48.249 49.3291 46.7738 50.8062 44.9649 50.8062ZM61.8772 73.853C61.7894 73.2669 61.7367 72.6749 61.7367 72.0711C61.7367 68.0972 63.7095 64.4748 66.8004 62.6695C68.0122 63.496 69.4757 63.9825 71.0446 63.9825C72.6135 63.9825 74.0829 63.496 75.2888 62.6695C78.3797 64.4748 80.3525 68.0972 80.3525 72.0711C80.3525 72.669 80.2999 73.261 80.212 73.853C77.5543 75.5352 74.4165 76.5082 71.0446 76.5082C67.6727 76.5082 64.5349 75.5293 61.8772 73.853ZM71.0446 62.2299C67.8483 62.2299 65.2491 59.6275 65.2491 56.4272C65.2491 53.2269 67.8483 50.6245 71.0446 50.6245C74.2409 50.6245 76.8401 53.2269 76.8401 56.4272C76.8401 59.6275 74.2409 62.2299 71.0446 62.2299ZM82.0912 72.4814C82.0912 72.3466 82.1088 72.2118 82.1088 72.077C82.1088 67.6927 80.0013 63.6601 76.6645 61.4621C77.8646 60.1257 78.5963 58.3615 78.5963 56.4272C78.5963 52.2598 75.2068 48.8661 71.0446 48.8661C66.8824 48.8661 63.4929 52.2598 63.4929 56.4272C63.4929 58.3615 64.2305 60.1199 65.4247 61.4621C62.0879 63.6601 59.9805 67.6927 59.9805 72.077C59.9805 72.2118 59.9922 72.3466 59.998 72.4814C56.2339 69.3163 53.8337 64.5745 53.8337 59.2817C53.8337 49.7804 61.5552 42.0493 71.0446 42.0493C80.534 42.0493 88.2555 49.7804 88.2555 59.2817C88.2555 64.5745 85.8553 69.3222 82.0912 72.4814Z" fill="#FDFCFB"/>
</svg>
