<svg width="490" height="490" viewBox="0 0 490 490" fill="none" xmlns="http://www.w3.org/2000/svg">
<circle cx="245" cy="245" r="245" fill="#FFC000"/>
<g clip-path="url(#clip0_287_3341)">
<path d="M244.996 133.996C231.488 133.996 217.979 133.996 204.47 133.996C202.877 133.996 202.672 133.828 202.166 132.314C200.733 128.025 199.272 123.746 197.86 119.449C197.385 118.001 197.899 117.347 199.427 117.347C208.062 117.342 216.698 117.344 225.332 117.344C246.952 117.344 268.572 117.344 290.192 117.344C292.203 117.344 292.676 117.956 292.045 119.855C290.609 124.177 289.135 128.487 287.698 132.809C287.366 133.805 286.656 134.005 285.716 134.005C275.87 133.991 266.025 133.996 256.181 133.996C252.452 133.996 248.722 133.996 244.994 133.996H244.996ZM292.565 114.887C292.974 114.878 293.378 114.605 293.783 114.455C293.547 114.055 293.408 113.523 293.064 113.279C288.326 109.923 283.564 106.599 278.799 103.283C274.274 100.134 269.731 97.0109 265.211 93.8563C258.789 89.3744 252.377 84.8813 245.973 80.3738C245.318 79.9122 244.752 79.8627 244.097 80.3227C242.069 81.7474 240.019 83.1434 237.991 84.5698C234.629 86.9337 231.289 89.328 227.918 91.6792C223.481 94.7731 219.016 97.8287 214.576 100.918C209.731 104.29 204.899 107.681 200.062 111.065C198.913 111.869 197.753 112.659 196.636 113.506C196.398 113.686 196.152 114.15 196.229 114.373C196.313 114.616 196.752 114.779 197.067 114.887C197.301 114.969 197.585 114.91 197.848 114.91C201.576 114.91 205.306 114.879 209.034 114.931C210.047 114.945 210.854 114.643 211.655 114.074C216.015 110.979 220.389 107.901 224.769 104.834C231.236 100.306 237.717 95.797 244.18 91.2655C244.747 90.8678 245.254 90.8439 245.794 91.2448C246.029 91.4189 246.242 91.6249 246.484 91.7894C251.933 95.4967 257.39 99.1912 262.835 102.908C268.412 106.716 273.968 110.554 279.562 114.34C280.065 114.68 280.762 114.862 281.377 114.886C283.207 114.956 285.04 114.911 286.871 114.91C288.768 114.91 290.667 114.935 292.562 114.889L292.565 114.887ZM241.923 139.554C241.923 137.403 241.016 136.486 238.822 136.481C233.689 136.47 228.557 136.47 223.424 136.481C221.294 136.486 220.336 137.414 220.333 139.513C220.32 148.476 220.327 157.44 220.328 166.404C220.328 166.567 220.335 166.73 220.352 166.891C220.52 168.444 221.419 169.319 222.997 169.325C228.424 169.348 233.852 169.348 239.279 169.325C241.006 169.319 241.92 168.354 241.921 166.64C241.926 162.077 241.921 157.514 241.921 152.95C241.921 148.484 241.921 144.02 241.921 139.554H241.923ZM245.35 166.458C245.353 168.417 246.27 169.33 248.227 169.333C253.428 169.341 258.629 169.341 263.83 169.333C265.759 169.33 266.747 168.354 266.749 166.457C266.754 157.456 266.754 148.456 266.749 139.457C266.749 137.573 265.693 136.494 263.77 136.486C258.603 136.465 253.435 136.467 248.266 136.486C246.292 136.494 245.348 137.482 245.347 139.458C245.342 143.926 245.347 148.393 245.347 152.861C245.347 157.394 245.34 161.927 245.35 166.458ZM272.655 115.209C273.344 115.209 274.029 115.097 274.012 114.33C274.001 113.891 273.549 113.343 273.143 113.054C271.075 111.576 268.957 110.166 266.855 108.735C259.927 104.02 252.989 99.3189 246.084 94.5719C245.265 94.0096 244.688 94.048 243.901 94.6022C239.085 97.998 234.239 101.349 229.401 104.716C225.359 107.53 221.315 110.342 217.276 113.161C216.504 113.701 216.26 114.431 216.774 114.843C217.085 115.094 217.603 115.185 218.027 115.185C227.083 115.204 236.139 115.199 245.194 115.199C254.348 115.199 263.501 115.194 272.655 115.207V115.209ZM270.458 167.677C270.456 168.425 270.586 169.091 271.408 169.279C272.304 169.485 272.8 168.95 273.116 168.179C273.56 167.094 274.021 166.018 274.473 164.936C276.252 160.671 278.016 156.402 279.81 152.144C281.68 147.708 283.583 143.287 285.46 138.853C286.12 137.292 285.584 136.49 283.869 136.482C279.978 136.467 276.088 136.47 272.2 136.482C270.851 136.487 270.466 136.898 270.466 138.251C270.464 143.106 270.466 147.962 270.466 152.818C270.466 157.771 270.472 162.724 270.46 167.679L270.458 167.677ZM216.8 138.166C216.8 136.99 216.443 136.511 215.369 136.498C212.101 136.46 208.831 136.455 205.561 136.492C204.393 136.505 203.933 137.193 204.202 138.311C204.263 138.564 204.345 138.813 204.428 139.059C206.206 144.261 207.996 149.46 209.766 154.666C211.308 159.196 212.822 163.733 214.376 168.257C214.499 168.615 214.788 169.03 215.113 169.186C216.066 169.647 216.799 169.022 216.8 167.798C216.807 162.844 216.803 157.889 216.803 152.934C216.803 148.012 216.805 143.09 216.803 138.168L216.8 138.166Z" fill="#231F20"/>
<path d="M284.394 207.359C283.143 207.359 281.967 207.38 280.792 207.337C280.606 207.331 280.353 207.066 280.265 206.863C279.554 205.216 278.86 203.561 278.195 201.895C278.029 201.478 277.844 201.287 277.356 201.29C273.829 201.312 270.303 201.309 266.776 201.293C266.347 201.291 266.126 201.411 265.962 201.827C265.305 203.496 264.596 205.144 263.934 206.81C263.777 207.205 263.589 207.387 263.134 207.371C262.077 207.334 261.018 207.359 259.859 207.359C259.946 207.105 259.997 206.907 260.077 206.721C263.48 198.902 266.893 191.087 270.28 183.262C270.493 182.77 270.753 182.595 271.27 182.632C272.099 182.693 273.111 182.421 273.712 182.806C274.284 183.174 274.436 184.198 274.758 184.942C277.886 192.184 281.01 199.427 284.133 206.671C284.218 206.867 284.285 207.072 284.393 207.356L284.394 207.359ZM276.654 198.218C275.129 194.394 273.629 190.636 272.062 186.707C270.474 190.663 268.971 194.41 267.443 198.218H276.654Z" fill="#231F20"/>
<path d="M227.898 185.689C226.85 186.494 225.961 187.176 225.043 187.881C223.457 186.033 221.475 185.057 219.085 185.001C213.975 184.881 209.939 188.523 209.492 193.615C209.215 196.779 209.841 199.677 212.027 202.111C215.313 205.77 222.199 205.987 225.221 201.841C225.264 201.782 225.311 201.723 225.399 201.608C226.331 202.242 227.235 202.857 228.195 203.508C226.937 205.192 225.4 206.479 223.479 207.112C218.383 208.792 213.615 208.174 209.542 204.505C206.797 202.033 205.634 198.777 205.61 195.124C205.578 190.427 207.241 186.494 211.363 184.012C215.952 181.251 220.743 181.12 225.484 183.739C226.343 184.213 227.038 184.982 227.9 185.689H227.898Z" fill="#231F20"/>
<path d="M238.18 182.65C239.436 182.65 240.614 182.618 241.785 182.682C241.974 182.691 242.211 183.095 242.309 183.36C244.108 188.197 245.888 193.04 247.674 197.881C248.275 199.512 248.881 201.143 249.551 202.954C249.709 202.548 249.807 202.309 249.895 202.066C252.202 195.821 254.518 189.577 256.801 183.322C256.996 182.787 257.24 182.605 257.799 182.632C258.778 182.678 259.76 182.645 260.854 182.645C260.09 184.586 259.366 186.426 258.64 188.266C256.222 194.391 253.797 200.513 251.403 206.649C251.19 207.196 250.943 207.428 250.342 207.375C249.515 207.302 248.493 207.596 247.904 207.206C247.344 206.837 247.226 205.794 246.929 205.04C244.113 197.857 241.299 190.674 238.486 183.49C238.391 183.247 238.306 182.999 238.181 182.653L238.18 182.65Z" fill="#231F20"/>
<path d="M235.079 207.339H231.727V182.693H235.079V207.339Z" fill="#231F20"/>
</g>
<path d="M70.0212 239.612C72.0852 239.612 73.9332 240.02 75.5652 240.836C77.1972 241.64 78.5172 242.762 79.5252 244.202C80.5332 245.63 81.1332 247.28 81.3252 249.152H74.0172C73.8852 248.348 73.6392 247.652 73.2792 247.064C72.9192 246.476 72.4452 246.026 71.8572 245.714C71.2812 245.39 70.5912 245.228 69.7872 245.228C68.9112 245.228 68.1312 245.456 67.4472 245.912C66.7632 246.368 66.2232 247.148 65.8272 248.252C65.4432 249.344 65.2512 250.844 65.2512 252.752C65.2512 255.644 65.6772 257.702 66.5292 258.926C67.3812 260.138 68.4672 260.744 69.7872 260.744C70.5912 260.744 71.2812 260.54 71.8572 260.132C72.4452 259.724 72.9192 259.184 73.2792 258.512C73.6392 257.828 73.8852 257.084 74.0172 256.28H81.3252C81.1452 257.624 80.8392 258.902 80.4072 260.114C79.9872 261.326 79.3572 262.406 78.5172 263.354C77.6892 264.29 76.5852 265.028 75.2052 265.568C73.8252 266.096 72.0972 266.36 70.0212 266.36C67.5132 266.36 65.3232 265.766 63.4512 264.578C61.5912 263.39 60.1452 261.764 59.1132 259.7C58.0812 257.636 57.5652 255.284 57.5652 252.644C57.5652 250.004 58.0752 247.712 59.0952 245.768C60.1152 243.812 61.5552 242.3 63.4152 241.232C65.2872 240.152 67.4892 239.612 70.0212 239.612ZM85.2894 239.972H92.2914V266H85.2894V239.972ZM120.519 239.972L111.735 266H104.031L95.247 239.972H101.853L107.883 257.792L113.895 239.972H120.519ZM123.504 239.972H130.506V266H123.504V239.972ZM146.908 239.612C148.972 239.612 150.82 240.02 152.452 240.836C154.084 241.64 155.404 242.762 156.412 244.202C157.42 245.63 158.02 247.28 158.212 249.152H150.904C150.772 248.348 150.526 247.652 150.166 247.064C149.806 246.476 149.332 246.026 148.744 245.714C148.168 245.39 147.478 245.228 146.674 245.228C145.798 245.228 145.018 245.456 144.334 245.912C143.65 246.368 143.11 247.148 142.714 248.252C142.33 249.344 142.138 250.844 142.138 252.752C142.138 255.644 142.564 257.702 143.416 258.926C144.268 260.138 145.354 260.744 146.674 260.744C147.478 260.744 148.168 260.54 148.744 260.132C149.332 259.724 149.806 259.184 150.166 258.512C150.526 257.828 150.772 257.084 150.904 256.28H158.212C158.032 257.624 157.726 258.902 157.294 260.114C156.874 261.326 156.244 262.406 155.404 263.354C154.576 264.29 153.472 265.028 152.092 265.568C150.712 266.096 148.984 266.36 146.908 266.36C144.4 266.36 142.21 265.766 140.338 264.578C138.478 263.39 137.032 261.764 136 259.7C134.968 257.636 134.452 255.284 134.452 252.644C134.452 250.004 134.962 247.712 135.982 245.768C137.002 243.812 138.442 242.3 140.302 241.232C142.174 240.152 144.376 239.612 146.908 239.612ZM169.207 266V239.972H188.431L188.395 245.768H176.263V250.088H186.415V255.74H176.209V260.168H188.467V266H169.207ZM209.724 239.972H216.726V266H210.408L199.518 250.484V266H192.516V239.972H199.572L209.724 254.48V239.972ZM233.002 266.36C230.53 266.36 228.37 265.802 226.522 264.686C224.674 263.558 223.24 261.998 222.22 260.006C221.2 258.002 220.69 255.692 220.69 253.076C220.69 250.376 221.23 248.018 222.31 246.002C223.402 243.974 224.902 242.402 226.81 241.286C228.73 240.17 230.938 239.612 233.434 239.612C235.186 239.612 236.758 239.876 238.15 240.404C239.542 240.932 240.73 241.652 241.714 242.564C242.71 243.464 243.472 244.484 244 245.624C244.528 246.764 244.804 247.94 244.828 249.152H237.502C237.346 248.444 237.088 247.808 236.728 247.244C236.38 246.68 235.918 246.236 235.342 245.912C234.766 245.576 234.07 245.408 233.254 245.408C232.402 245.408 231.598 245.642 230.842 246.11C230.098 246.566 229.492 247.34 229.024 248.432C228.568 249.512 228.34 250.988 228.34 252.86C228.34 254.456 228.502 255.746 228.826 256.73C229.162 257.702 229.588 258.446 230.104 258.962C230.632 259.478 231.202 259.826 231.814 260.006C232.426 260.186 233.008 260.276 233.56 260.276C234.052 260.276 234.508 260.204 234.928 260.06C235.348 259.916 235.72 259.73 236.044 259.502C236.368 259.262 236.638 258.998 236.854 258.71C237.082 258.422 237.244 258.128 237.34 257.828L237.646 256.892H233.11V252.176L245.026 252.248V266H240.436V263.12C240.004 263.564 239.482 264.038 238.87 264.542C238.27 265.046 237.502 265.478 236.566 265.838C235.63 266.186 234.442 266.36 233.002 266.36ZM248.212 266L257.428 239.972H264.592L273.808 266H266.896L265.168 260.96H256.96L255.196 266H248.212ZM258.436 254.984H263.584L261.028 246.668L258.436 254.984ZM286.932 266.36C284.46 266.36 282.3 265.802 280.452 264.686C278.604 263.558 277.17 261.998 276.15 260.006C275.13 258.002 274.62 255.692 274.62 253.076C274.62 250.376 275.16 248.018 276.24 246.002C277.332 243.974 278.832 242.402 280.74 241.286C282.66 240.17 284.868 239.612 287.364 239.612C289.116 239.612 290.688 239.876 292.08 240.404C293.472 240.932 294.66 241.652 295.644 242.564C296.64 243.464 297.402 244.484 297.93 245.624C298.458 246.764 298.734 247.94 298.758 249.152H291.432C291.276 248.444 291.018 247.808 290.658 247.244C290.31 246.68 289.848 246.236 289.272 245.912C288.696 245.576 288 245.408 287.184 245.408C286.332 245.408 285.528 245.642 284.772 246.11C284.028 246.566 283.422 247.34 282.954 248.432C282.498 249.512 282.27 250.988 282.27 252.86C282.27 254.456 282.432 255.746 282.756 256.73C283.092 257.702 283.518 258.446 284.034 258.962C284.562 259.478 285.132 259.826 285.744 260.006C286.356 260.186 286.938 260.276 287.49 260.276C287.982 260.276 288.438 260.204 288.858 260.06C289.278 259.916 289.65 259.73 289.974 259.502C290.298 259.262 290.568 258.998 290.784 258.71C291.012 258.422 291.174 258.128 291.27 257.828L291.576 256.892H287.04V252.176L298.956 252.248V266H294.366V263.12C293.934 263.564 293.412 264.038 292.8 264.542C292.2 265.046 291.432 265.478 290.496 265.838C289.56 266.186 288.372 266.36 286.932 266.36ZM303.68 266V239.972H322.904L322.868 245.768H310.736V250.088H320.888V255.74H310.682V260.168H322.94V266H303.68ZM326.989 266V239.972H337.393L341.605 255.848L345.853 239.972H356.221V266H349.201V247.136L344.125 266H339.085L333.991 247.136V266H326.989ZM361.09 266V239.972H380.314L380.278 245.768H368.146V250.088H378.298V255.74H368.092V260.168H380.35V266H361.09ZM401.607 239.972H408.609V266H402.291L391.401 250.484V266H384.399V239.972H391.455L401.607 254.48V239.972ZM411.583 246.128V239.972H433.435V246.128H425.983V266H418.963V246.128H411.583ZM141.75 308V281.972H152.046C153.966 281.972 155.694 282.314 157.23 282.998C158.778 283.682 160.002 284.684 160.902 286.004C161.802 287.312 162.252 288.908 162.252 290.792C162.252 292.508 161.874 293.984 161.118 295.22C160.362 296.444 159.288 297.386 157.896 298.046C156.504 298.706 154.854 299.036 152.946 299.036H148.752V308H141.75ZM148.68 293.816H152.73C153.618 293.816 154.356 293.462 154.944 292.754C155.532 292.046 155.826 291.272 155.826 290.432C155.826 289.532 155.502 288.764 154.854 288.128C154.218 287.48 153.51 287.156 152.73 287.156H148.68V293.816ZM165.762 281.972H172.764V302.24H183.168V308H165.762V281.972ZM185.212 308L194.428 281.972H201.592L210.808 308H203.896L202.168 302.96H193.96L192.196 308H185.212ZM195.436 296.984H200.584L198.028 288.668L195.436 296.984ZM210.454 288.128V281.972H232.306V288.128H224.854V308H217.834V288.128H210.454ZM235.266 281.972H254.346L254.31 287.696H242.268V292.376H252.33V297.956H242.268V308H235.266V281.972ZM269.748 308.36C267.168 308.36 264.93 307.814 263.034 306.722C261.15 305.618 259.692 304.07 258.66 302.078C257.628 300.086 257.112 297.74 257.112 295.04C257.112 292.328 257.634 289.97 258.678 287.966C259.734 285.95 261.21 284.39 263.106 283.286C265.002 282.17 267.216 281.612 269.748 281.612C272.268 281.612 274.47 282.17 276.354 283.286C278.238 284.39 279.702 285.95 280.746 287.966C281.79 289.97 282.312 292.328 282.312 295.04C282.312 297.728 281.796 300.074 280.764 302.078C279.744 304.07 278.292 305.618 276.408 306.722C274.524 307.814 272.304 308.36 269.748 308.36ZM269.748 302.744C270.708 302.744 271.56 302.504 272.304 302.024C273.06 301.532 273.648 300.734 274.068 299.63C274.5 298.514 274.716 297.02 274.716 295.148C274.716 293.216 274.5 291.674 274.068 290.522C273.648 289.358 273.06 288.518 272.304 288.002C271.56 287.486 270.708 287.228 269.748 287.228C268.788 287.228 267.93 287.486 267.174 288.002C266.43 288.518 265.842 289.358 265.41 290.522C264.978 291.674 264.762 293.216 264.762 295.148C264.762 297.02 264.978 298.514 265.41 299.63C265.842 300.734 266.43 301.532 267.174 302.024C267.93 302.504 268.788 302.744 269.748 302.744ZM307.914 308H300.732L296.952 299.036H293.28V308H286.278V281.972H298.086C300.342 281.972 302.154 282.344 303.522 283.088C304.902 283.832 305.904 284.84 306.528 286.112C307.152 287.372 307.464 288.788 307.464 290.36C307.464 291.692 307.284 292.832 306.924 293.78C306.576 294.716 306.09 295.52 305.466 296.192C304.854 296.852 304.146 297.428 303.342 297.92L307.914 308ZM297.294 293.816C298.194 293.816 298.938 293.462 299.526 292.754C300.126 292.046 300.426 291.272 300.426 290.432C300.426 289.532 300.102 288.764 299.454 288.128C298.806 287.48 298.086 287.156 297.294 287.156H293.28V293.816H297.294ZM311.977 308V281.972H322.381L326.593 297.848L330.841 281.972H341.209V308H334.189V289.136L329.113 308H324.073L318.979 289.136V308H311.977Z" fill="#010101"/>
<path d="M101.271 320.756H116.111L116.083 325.208H106.717V328.848H114.543V333.188H106.717V341H101.271V320.756ZM128.09 341.28C126.084 341.28 124.343 340.855 122.868 340.006C121.403 339.147 120.269 337.943 119.466 336.394C118.664 334.845 118.262 333.02 118.262 330.92C118.262 328.811 118.668 326.977 119.48 325.418C120.302 323.85 121.45 322.637 122.924 321.778C124.399 320.91 126.121 320.476 128.09 320.476C130.05 320.476 131.763 320.91 133.228 321.778C134.694 322.637 135.832 323.85 136.644 325.418C137.456 326.977 137.862 328.811 137.862 330.92C137.862 333.011 137.461 334.835 136.658 336.394C135.865 337.943 134.736 339.147 133.27 340.006C131.805 340.855 130.078 341.28 128.09 341.28ZM128.09 336.912C128.837 336.912 129.5 336.725 130.078 336.352C130.666 335.969 131.124 335.349 131.45 334.49C131.786 333.622 131.954 332.46 131.954 331.004C131.954 329.501 131.786 328.302 131.45 327.406C131.124 326.501 130.666 325.847 130.078 325.446C129.5 325.045 128.837 324.844 128.09 324.844C127.344 324.844 126.676 325.045 126.088 325.446C125.51 325.847 125.052 326.501 124.716 327.406C124.38 328.302 124.212 329.501 124.212 331.004C124.212 332.46 124.38 333.622 124.716 334.49C125.052 335.349 125.51 335.969 126.088 336.352C126.676 336.725 127.344 336.912 128.09 336.912ZM157.775 341H152.189L149.249 334.028H146.393V341H140.947V320.756H150.131C151.885 320.756 153.295 321.045 154.359 321.624C155.432 322.203 156.211 322.987 156.697 323.976C157.182 324.956 157.425 326.057 157.425 327.28C157.425 328.316 157.285 329.203 157.005 329.94C156.734 330.668 156.356 331.293 155.871 331.816C155.395 332.329 154.844 332.777 154.219 333.16L157.775 341ZM149.515 329.968C150.215 329.968 150.793 329.693 151.251 329.142C151.717 328.591 151.951 327.989 151.951 327.336C151.951 326.636 151.699 326.039 151.195 325.544C150.691 325.04 150.131 324.788 149.515 324.788H146.393V329.968H149.515ZM166.404 341V320.756H174.496L177.772 333.104L181.076 320.756H189.14V341H183.68V326.328L179.732 341H175.812L171.85 326.328V341H166.404ZM192.927 341V320.756H207.879L207.851 325.264H198.415V328.624H206.311V333.02H198.373V336.464H207.907V341H192.927ZM209.887 341L217.055 320.756H222.627L229.795 341H224.419L223.075 337.08H216.691L215.319 341H209.887ZM217.839 332.432H221.843L219.855 325.964L217.839 332.432ZM245.495 320.756H250.941V341H246.027L237.557 328.932V341H232.111V320.756H237.599L245.495 332.04V320.756ZM254.724 320.756H260.17V341H254.724V320.756ZM277.323 320.756H282.769V341H277.855L269.385 328.932V341H263.939V320.756H269.427L277.323 332.04V320.756ZM295.428 341.28C293.505 341.28 291.825 340.846 290.388 339.978C288.951 339.101 287.835 337.887 287.042 336.338C286.249 334.779 285.852 332.983 285.852 330.948C285.852 328.848 286.272 327.014 287.112 325.446C287.961 323.869 289.128 322.646 290.612 321.778C292.105 320.91 293.823 320.476 295.764 320.476C297.127 320.476 298.349 320.681 299.432 321.092C300.515 321.503 301.439 322.063 302.204 322.772C302.979 323.472 303.571 324.265 303.982 325.152C304.393 326.039 304.607 326.953 304.626 327.896H298.928C298.807 327.345 298.606 326.851 298.326 326.412C298.055 325.973 297.696 325.628 297.248 325.376C296.8 325.115 296.259 324.984 295.624 324.984C294.961 324.984 294.336 325.166 293.748 325.53C293.169 325.885 292.698 326.487 292.334 327.336C291.979 328.176 291.802 329.324 291.802 330.78C291.802 332.021 291.928 333.025 292.18 333.79C292.441 334.546 292.773 335.125 293.174 335.526C293.585 335.927 294.028 336.198 294.504 336.338C294.98 336.478 295.433 336.548 295.862 336.548C296.245 336.548 296.599 336.492 296.926 336.38C297.253 336.268 297.542 336.123 297.794 335.946C298.046 335.759 298.256 335.554 298.424 335.33C298.601 335.106 298.727 334.877 298.802 334.644L299.04 333.916H295.512V330.248L304.78 330.304V341H301.21V338.76C300.874 339.105 300.468 339.474 299.992 339.866C299.525 340.258 298.928 340.594 298.2 340.874C297.472 341.145 296.548 341.28 295.428 341.28ZM308.454 320.756H323.294L323.266 325.208H313.9V328.848H321.726V333.188H313.9V341H308.454V320.756ZM343.618 332.628C343.618 334.345 343.343 335.853 342.792 337.15C342.241 338.447 341.327 339.46 340.048 340.188C338.779 340.916 337.057 341.28 334.882 341.28C332.707 341.28 330.981 340.916 329.702 340.188C328.433 339.46 327.523 338.447 326.972 337.15C326.421 335.853 326.146 334.345 326.146 332.628V320.756H331.662V332.852C331.662 334.252 331.984 335.246 332.628 335.834C333.281 336.422 334.033 336.716 334.882 336.716C335.442 336.716 335.965 336.59 336.45 336.338C336.945 336.077 337.341 335.666 337.64 335.106C337.948 334.537 338.102 333.785 338.102 332.852V320.756H343.618V332.628ZM347.009 320.756H352.455V336.52H360.547V341H347.009V320.756ZM377.863 320.448C379.151 320.448 380.304 320.639 381.321 321.022C382.348 321.405 383.155 321.932 383.743 322.604C384.341 323.276 384.639 324.051 384.639 324.928C384.639 325.46 384.527 325.969 384.303 326.454C384.079 326.93 383.771 327.387 383.379 327.826C382.997 328.255 382.553 328.671 382.049 329.072C381.545 329.473 381.009 329.865 380.439 330.248L382.455 332.628C382.539 332.32 382.642 331.956 382.763 331.536C382.885 331.116 383.006 330.682 383.127 330.234C383.258 329.786 383.37 329.361 383.463 328.96H389.119C388.793 329.669 388.373 330.411 387.859 331.186C387.355 331.951 386.842 332.721 386.319 333.496C385.797 334.261 385.349 334.999 384.975 335.708L389.511 341H383.295L381.783 339.264C380.635 340.001 379.469 340.501 378.283 340.762C377.107 341.014 376.043 341.14 375.091 341.14C373.458 341.14 372.133 340.916 371.115 340.468C370.098 340.02 369.351 339.404 368.875 338.62C368.409 337.836 368.175 336.94 368.175 335.932C368.175 334.971 368.376 334.135 368.777 333.426C369.179 332.707 369.776 332.049 370.569 331.452C371.372 330.845 372.366 330.229 373.551 329.604C373.113 329.1 372.716 328.647 372.361 328.246C372.007 327.835 371.722 327.415 371.507 326.986C371.302 326.547 371.199 326.029 371.199 325.432C371.199 324.48 371.479 323.631 372.039 322.884C372.599 322.128 373.379 321.535 374.377 321.106C375.385 320.667 376.547 320.448 377.863 320.448ZM378.143 323.584C377.667 323.612 377.28 323.761 376.981 324.032C376.692 324.293 376.547 324.629 376.547 325.04C376.547 325.208 376.58 325.39 376.645 325.586C376.72 325.773 376.832 325.983 376.981 326.216C377.14 326.44 377.35 326.692 377.611 326.972L378.255 327.644C378.666 327.355 378.997 327.079 379.249 326.818C379.501 326.547 379.683 326.281 379.795 326.02C379.907 325.759 379.963 325.488 379.963 325.208C379.963 324.844 379.879 324.541 379.711 324.298C379.553 324.046 379.333 323.859 379.053 323.738C378.783 323.617 378.479 323.565 378.143 323.584ZM376.155 332.628C375.623 332.936 375.143 333.337 374.713 333.832C374.293 334.327 374.158 334.896 374.307 335.54C374.401 335.904 374.573 336.203 374.825 336.436C375.077 336.66 375.353 336.823 375.651 336.926C375.959 337.029 376.239 337.08 376.491 337.08C376.818 337.08 377.252 337.01 377.793 336.87C378.344 336.721 378.815 336.473 379.207 336.128L376.155 332.628ZM88.1322 374V353.756H96.2242L99.5002 366.104L102.804 353.756H110.868V374H105.408V359.328L101.46 374H97.5402L93.5782 359.328V374H88.1322ZM114.656 374V353.756H129.608L129.58 358.264H120.144V361.624H128.04V366.02H120.102V369.464H129.636V374H114.656ZM131.615 374L138.783 353.756H144.355L151.523 374H146.147L144.803 370.08H138.419L137.047 374H131.615ZM139.567 365.432H143.571L141.583 358.964L139.567 365.432ZM161.703 374.28C160.658 374.28 159.622 374.149 158.595 373.888C157.578 373.627 156.64 373.23 155.781 372.698C154.932 372.166 154.232 371.499 153.681 370.696C153.13 369.884 152.813 368.932 152.729 367.84H158.273C158.376 368.316 158.576 368.722 158.875 369.058C159.174 369.394 159.561 369.655 160.037 369.842C160.513 370.019 161.059 370.108 161.675 370.108C162.235 370.108 162.762 370.052 163.257 369.94C163.761 369.828 164.167 369.641 164.475 369.38C164.792 369.109 164.951 368.736 164.951 368.26C164.951 367.849 164.788 367.532 164.461 367.308C164.144 367.084 163.728 366.911 163.215 366.79C162.711 366.669 162.179 366.561 161.619 366.468L158.525 365.936C156.976 365.684 155.725 365.059 154.773 364.06C153.83 363.052 153.34 361.689 153.303 359.972C153.284 358.609 153.648 357.447 154.395 356.486C155.151 355.515 156.159 354.778 157.419 354.274C158.688 353.761 160.088 353.504 161.619 353.504C163.467 353.504 165.03 353.775 166.309 354.316C167.588 354.857 168.558 355.609 169.221 356.57C169.893 357.531 170.243 358.637 170.271 359.888H164.867C164.811 359.365 164.652 358.945 164.391 358.628C164.13 358.301 163.775 358.068 163.327 357.928C162.888 357.779 162.356 357.704 161.731 357.704C161.208 357.704 160.77 357.755 160.415 357.858C160.07 357.951 159.794 358.077 159.589 358.236C159.384 358.385 159.234 358.553 159.141 358.74C159.057 358.927 159.015 359.113 159.015 359.3C159.015 359.757 159.16 360.126 159.449 360.406C159.738 360.686 160.317 360.905 161.185 361.064L164.293 361.596C165.74 361.848 166.874 362.24 167.695 362.772C168.516 363.295 169.118 363.887 169.501 364.55C169.893 365.213 170.14 365.871 170.243 366.524C170.346 367.177 170.397 367.756 170.397 368.26C170.397 369.408 170.014 370.439 169.249 371.354C168.493 372.259 167.462 372.973 166.155 373.496C164.848 374.019 163.364 374.28 161.703 374.28ZM190.835 365.628C190.835 367.345 190.559 368.853 190.009 370.15C189.458 371.447 188.543 372.46 187.265 373.188C185.995 373.916 184.273 374.28 182.099 374.28C179.924 374.28 178.197 373.916 176.919 373.188C175.649 372.46 174.739 371.447 174.189 370.15C173.638 368.853 173.363 367.345 173.363 365.628V353.756H178.879V365.852C178.879 367.252 179.201 368.246 179.845 368.834C180.498 369.422 181.249 369.716 182.099 369.716C182.659 369.716 183.181 369.59 183.667 369.338C184.161 369.077 184.558 368.666 184.857 368.106C185.165 367.537 185.319 366.785 185.319 365.852V353.756H190.835V365.628ZM211.054 374H205.468L202.528 367.028H199.672V374H194.226V353.756H203.41C205.165 353.756 206.574 354.045 207.638 354.624C208.711 355.203 209.491 355.987 209.976 356.976C210.461 357.956 210.704 359.057 210.704 360.28C210.704 361.316 210.564 362.203 210.284 362.94C210.013 363.668 209.635 364.293 209.15 364.816C208.674 365.329 208.123 365.777 207.498 366.16L211.054 374ZM202.794 362.968C203.494 362.968 204.073 362.693 204.53 362.142C204.997 361.591 205.23 360.989 205.23 360.336C205.23 359.636 204.978 359.039 204.474 358.544C203.97 358.04 203.41 357.788 202.794 357.788H199.672V362.968H202.794ZM213.018 374L220.186 353.756H225.758L232.926 374H227.55L226.206 370.08H219.822L218.45 374H213.018ZM220.97 365.432H224.974L222.986 358.964L220.97 365.432ZM235.242 374V353.756H243.334C246.162 353.756 248.22 354.218 249.508 355.142C250.805 356.057 251.454 357.377 251.454 359.104C251.454 360.037 251.22 360.863 250.754 361.582C250.287 362.301 249.428 362.968 248.178 363.584C249.064 363.845 249.76 364.177 250.264 364.578C250.777 364.979 251.15 365.409 251.384 365.866C251.617 366.323 251.766 366.781 251.832 367.238C251.897 367.686 251.93 368.101 251.93 368.484C251.93 370.369 251.304 371.76 250.054 372.656C248.812 373.552 246.722 374 243.782 374H235.242ZM240.688 369.912H243.978C244.78 369.912 245.382 369.697 245.784 369.268C246.185 368.829 246.386 368.344 246.386 367.812C246.386 367.439 246.292 367.107 246.106 366.818C245.919 366.519 245.653 366.286 245.308 366.118C244.972 365.941 244.575 365.852 244.118 365.852H240.688V369.912ZM240.688 361.652H244.118C244.444 361.652 244.734 361.605 244.986 361.512C245.247 361.419 245.466 361.293 245.644 361.134C245.83 360.966 245.97 360.77 246.064 360.546C246.166 360.313 246.218 360.065 246.218 359.804C246.218 359.197 245.994 358.721 245.546 358.376C245.107 358.021 244.566 357.844 243.922 357.844H240.688V361.652ZM255.312 353.756H260.758V369.52H268.85V374H255.312V353.756ZM271.499 374V353.756H286.451L286.423 358.264H276.987V361.624H284.883V366.02H276.945V369.464H286.479V374H271.499ZM295.097 353.756H300.543V374H295.097V353.756ZM304.312 374V353.756H312.404L315.68 366.104L318.984 353.756H327.048V374H321.588V359.328L317.64 374H313.72L309.758 359.328V374H304.312ZM330.835 374V353.756H338.843C340.337 353.756 341.681 354.022 342.875 354.554C344.079 355.086 345.031 355.865 345.731 356.892C346.431 357.909 346.781 359.151 346.781 360.616C346.781 361.951 346.487 363.099 345.899 364.06C345.311 365.012 344.476 365.745 343.393 366.258C342.311 366.771 341.027 367.028 339.543 367.028H336.281V374H330.835ZM336.225 362.968H339.375C340.066 362.968 340.64 362.693 341.097 362.142C341.555 361.591 341.783 360.989 341.783 360.336C341.783 359.636 341.531 359.039 341.027 358.544C340.533 358.04 339.982 357.788 339.375 357.788H336.225V362.968ZM345.881 374L353.049 353.756H358.621L365.789 374H360.413L359.069 370.08H352.685L351.313 374H345.881ZM353.833 365.432H357.837L355.849 358.964L353.833 365.432ZM376.108 353.476C377.714 353.476 379.151 353.793 380.42 354.428C381.69 355.053 382.716 355.926 383.5 357.046C384.284 358.157 384.751 359.44 384.9 360.896H379.216C379.114 360.271 378.922 359.729 378.642 359.272C378.362 358.815 377.994 358.465 377.536 358.222C377.088 357.97 376.552 357.844 375.926 357.844C375.245 357.844 374.638 358.021 374.106 358.376C373.574 358.731 373.154 359.337 372.846 360.196C372.548 361.045 372.398 362.212 372.398 363.696C372.398 365.945 372.73 367.546 373.392 368.498C374.055 369.441 374.9 369.912 375.926 369.912C376.552 369.912 377.088 369.753 377.536 369.436C377.994 369.119 378.362 368.699 378.642 368.176C378.922 367.644 379.114 367.065 379.216 366.44H384.9C384.76 367.485 384.522 368.479 384.186 369.422C383.86 370.365 383.37 371.205 382.716 371.942C382.072 372.67 381.214 373.244 380.14 373.664C379.067 374.075 377.723 374.28 376.108 374.28C374.158 374.28 372.454 373.818 370.998 372.894C369.552 371.97 368.427 370.705 367.624 369.1C366.822 367.495 366.42 365.665 366.42 363.612C366.42 361.559 366.817 359.776 367.61 358.264C368.404 356.743 369.524 355.567 370.97 354.736C372.426 353.896 374.139 353.476 376.108 353.476ZM386.35 358.544V353.756H403.346V358.544H397.55V374H392.09V358.544H386.35Z" fill="white"/>
<defs>
<clipPath id="clip0_287_3341">
<rect width="97.5664" height="128" fill="white" transform="translate(196.217 80)"/>
</clipPath>
</defs>
</svg>
