<svg width="74" height="74" viewBox="0 0 74 74" fill="none" xmlns="http://www.w3.org/2000/svg">
<path id="Vector" d="M67.8318 27.8305V24.7535H72.455C73.3043 24.7535 73.996 24.063 73.996 23.2151V19.9358C73.996 19.3577 73.6775 18.8342 73.1596 18.5675L36.998 0L0.836462 18.5642C0.321703 18.8308 0 19.3543 0 19.9325V23.2118C0 24.0597 0.691704 24.7503 1.54106 24.7503H6.16425V27.8272C6.16425 29.1633 7.02649 30.2907 8.22007 30.7178V59.823C7.02649 60.247 6.16425 61.3775 6.16425 62.7136V65.7906L1.54106 65.7938C0.691753 65.7938 0 66.4843 0 67.3322V74H74V67.3322C74 66.4844 73.3083 65.7938 72.4589 65.7938H67.8358V62.7168C67.8358 61.3807 66.9735 60.2534 65.7799 59.8262V30.721C66.9735 30.2971 67.8358 29.1697 67.8358 27.8336L67.8318 27.8305ZM65.776 27.8305C65.776 28.3958 65.3127 28.8551 64.7497 28.8551H56.5264C55.9602 28.8551 55.5001 28.3958 55.5001 27.8305V24.7535L65.7763 24.7503L65.776 27.8305ZM53.4407 62.7143V65.7912H44.1915V62.7143C44.1915 61.3782 43.3293 60.2508 42.1357 59.8237V30.7185C43.3293 30.2945 44.1915 29.164 44.1915 27.8279V24.7509H53.4407V27.8279C53.4407 29.164 54.303 30.2913 55.4965 30.7185V59.8237C54.303 60.2476 53.4407 61.3782 53.4407 62.7143ZM16.4424 59.6373H10.2749V30.9079H16.4424V59.6373ZM18.4982 59.8268V30.7217C19.6918 30.2977 20.554 29.1672 20.554 27.831V24.7541H29.8032V27.831C29.8032 29.1672 30.6654 30.2945 31.859 30.7217V59.8268C30.6654 60.2508 29.8032 61.3813 29.8032 62.7175V65.7944H20.554V62.7175C20.554 61.3813 19.6918 60.254 18.4982 59.8268ZM41.1088 28.8585H32.8856C32.3193 28.8585 31.8593 28.3992 31.8593 27.8339V24.757H42.1379V27.8339C42.1379 28.3992 41.6747 28.8585 41.1116 28.8585H41.1088ZM33.9151 30.9108H40.0825V59.6403H33.9151V30.9076V30.9108ZM31.8593 62.7146C31.8593 62.1493 32.3193 61.69 32.8856 61.69H41.1088C41.6751 61.69 42.1351 62.1525 42.1351 62.7146V65.7915L31.8589 65.7947L31.8593 62.7146ZM57.5519 30.9076H63.7193V59.637H57.5519V30.9076ZM2.05104 22.6981V20.2475L36.9937 2.30649L71.9396 20.2475V22.6981H2.05104ZM18.4945 24.7505V27.8274C18.4945 28.3927 18.0344 28.852 17.4682 28.852L9.24811 28.8552C8.68187 28.8552 8.2218 28.3959 8.2218 27.8306V24.7537H18.5005L18.4945 24.7505ZM8.21826 62.7143C8.21826 62.1491 8.67832 61.6898 9.24457 61.6898H17.4678C18.0341 61.6898 18.4942 62.1523 18.4942 62.7143V65.7913L8.21793 65.7945L8.21826 62.7143ZM71.9387 67.8436V71.9483H2.05104V67.8436H71.942H71.9387ZM55.4953 65.7913V62.7143C55.4953 62.1491 55.9586 61.6898 56.5216 61.6898L64.7449 61.6865C65.3111 61.6865 65.7712 62.149 65.7712 62.7111V65.7881L55.4953 65.7913Z" fill="white"/>
</svg>
